ISO-10303-21;
HEADER;
FILE_DESCRIPTION(('Open CASCADE Model'),'2;1');
FILE_NAME('Open CASCADE Shape Model','2026-08-14T20:26:07',('Author'),(
    'Open CASCADE'),'Open CASCADE STEP processor 7.9','Open CASCADE 7.9'
  ,'Unknown');
FILE_SCHEMA(('AUTOMOTIVE_DESIGN { 1 0 10303 214 1 1 1 1 }'));
ENDSEC;
DATA;
#1 = APPLICATION_PROTOCOL_DEFINITION('international standard',
  'automotive_design',2000,#2);
#2 = APPLICATION_CONTEXT(
  'core data for automotive mechanical design processes');
#3 = SHAPE_DEFINITION_REPRESENTATION(#4,#10);
#4 = PRODUCT_DEFINITION_SHAPE('','',#5);
#5 = PRODUCT_DEFINITION('design','',#6,#9);
#6 = PRODUCT_DEFINITION_FORMATION('','',#7);
#7 = PRODUCT('Open CASCADE STEP translator 7.9 8',
  'Open CASCADE STEP translator 7.9 8','',(#8));
#8 = PRODUCT_CONTEXT('',#2,'mechanical');
#9 = PRODUCT_DEFINITION_CONTEXT('part definition',#2,'design');
#10 = ADVANCED_BREP_SHAPE_REPRESENTATION('',(#11,#15),#1063);
#11 = AXIS2_PLACEMENT_3D('',#12,#13,#14);
#12 = CARTESIAN_POINT('',(0.,0.,0.));
#13 = DIRECTION('',(0.,0.,1.));
#14 = DIRECTION('',(1.,0.,-0.));
#15 = MANIFOLD_SOLID_BREP('',#16);
#16 = CLOSED_SHELL('',(#17,#263,#342,#422,#697,#746,#780,#828,#876,#904,
    #939,#943,#950,#1004,#1059));
#17 = ADVANCED_FACE('',(#18),#32,.F.);
#18 = FACE_BOUND('',#19,.F.);
#19 = EDGE_LOOP('',(#20,#55,#84,#112,#191));
#20 = ORIENTED_EDGE('',*,*,#21,.F.);
#21 = EDGE_CURVE('',#22,#24,#26,.T.);
#22 = VERTEX_POINT('',#23);
#23 = CARTESIAN_POINT('',(9.,-4.,88.));
#24 = VERTEX_POINT('',#25);
#25 = CARTESIAN_POINT('',(11.842719282327,-4.,88.));
#26 = SURFACE_CURVE('',#27,(#31,#43),.PCURVE_S1.);
#27 = LINE('',#28,#29);
#28 = CARTESIAN_POINT('',(8.5,-4.,88.));
#29 = VECTOR('',#30,1.);
#30 = DIRECTION('',(1.,0.,0.));
#31 = PCURVE('',#32,#37);
#32 = CYLINDRICAL_SURFACE('',#33,4.);
#33 = AXIS2_PLACEMENT_3D('',#34,#35,#36);
#34 = CARTESIAN_POINT('',(8.5,-1.7763568394E-15,88.));
#35 = DIRECTION('',(-1.,0.,-0.));
#36 = DIRECTION('',(0.,1.,-1.110223024625E-16));
#37 = DEFINITIONAL_REPRESENTATION('',(#38),#42);
#38 = LINE('',#39,#40);
#39 = CARTESIAN_POINT('',(3.14159265359,0.));
#40 = VECTOR('',#41,1.);
#41 = DIRECTION('',(0.,-1.));
#42 = ( GEOMETRIC_REPRESENTATION_CONTEXT(2) 
PARAMETRIC_REPRESENTATION_CONTEXT() REPRESENTATION_CONTEXT('2D SPACE',''
  ) );
#43 = PCURVE('',#44,#49);
#44 = PLANE('',#45);
#45 = AXIS2_PLACEMENT_3D('',#46,#47,#48);
#46 = CARTESIAN_POINT('',(8.5,-4.,88.));
#47 = DIRECTION('',(0.,-1.,1.110223024625E-16));
#48 = DIRECTION('',(0.,1.110223024625E-16,1.));
#49 = DEFINITIONAL_REPRESENTATION('',(#50),#54);
#50 = LINE('',#51,#52);
#51 = CARTESIAN_POINT('',(0.,0.));
#52 = VECTOR('',#53,1.);
#53 = DIRECTION('',(0.,-1.));
#54 = ( GEOMETRIC_REPRESENTATION_CONTEXT(2) 
PARAMETRIC_REPRESENTATION_CONTEXT() REPRESENTATION_CONTEXT('2D SPACE',''
  ) );
#55 = ORIENTED_EDGE('',*,*,#56,.F.);
#56 = EDGE_CURVE('',#57,#22,#59,.T.);
#57 = VERTEX_POINT('',#58);
#58 = CARTESIAN_POINT('',(9.,4.,88.));
#59 = SURFACE_CURVE('',#60,(#65,#72),.PCURVE_S1.);
#60 = CIRCLE('',#61,4.);
#61 = AXIS2_PLACEMENT_3D('',#62,#63,#64);
#62 = CARTESIAN_POINT('',(9.,-1.7763568394E-15,88.));
#63 = DIRECTION('',(-1.,0.,-0.));
#64 = DIRECTION('',(-0.,1.,0.));
#65 = PCURVE('',#32,#66);
#66 = DEFINITIONAL_REPRESENTATION('',(#67),#71);
#67 = LINE('',#68,#69);
#68 = CARTESIAN_POINT('',(0.,-0.5));
#69 = VECTOR('',#70,1.);
#70 = DIRECTION('',(1.,0.));
#71 = ( GEOMETRIC_REPRESENTATION_CONTEXT(2) 
PARAMETRIC_REPRESENTATION_CONTEXT() REPRESENTATION_CONTEXT('2D SPACE',''
  ) );
#72 = PCURVE('',#73,#78);
#73 = TOROIDAL_SURFACE('',#74,3.5,0.5);
#74 = AXIS2_PLACEMENT_3D('',#75,#76,#77);
#75 = CARTESIAN_POINT('',(9.,-1.7763568394E-15,88.));
#76 = DIRECTION('',(-1.,-0.,-0.));
#77 = DIRECTION('',(-0.,1.,0.));
#78 = DEFINITIONAL_REPRESENTATION('',(#79),#83);
#79 = LINE('',#80,#81);
#80 = CARTESIAN_POINT('',(0.,0.));
#81 = VECTOR('',#82,1.);
#82 = DIRECTION('',(1.,0.));
#83 = ( GEOMETRIC_REPRESENTATION_CONTEXT(2) 
PARAMETRIC_REPRESENTATION_CONTEXT() REPRESENTATION_CONTEXT('2D SPACE',''
  ) );
#84 = ORIENTED_EDGE('',*,*,#85,.T.);
#85 = EDGE_CURVE('',#57,#86,#88,.T.);
#86 = VERTEX_POINT('',#87);
#87 = CARTESIAN_POINT('',(11.842719282327,4.,88.));
#88 = SURFACE_CURVE('',#89,(#93,#100),.PCURVE_S1.);
#89 = LINE('',#90,#91);
#90 = CARTESIAN_POINT('',(8.5,4.,88.));
#91 = VECTOR('',#92,1.);
#92 = DIRECTION('',(1.,0.,0.));
#93 = PCURVE('',#32,#94);
#94 = DEFINITIONAL_REPRESENTATION('',(#95),#99);
#95 = LINE('',#96,#97);
#96 = CARTESIAN_POINT('',(0.,0.));
#97 = VECTOR('',#98,1.);
#98 = DIRECTION('',(0.,-1.));
#99 = ( GEOMETRIC_REPRESENTATION_CONTEXT(2) 
PARAMETRIC_REPRESENTATION_CONTEXT() REPRESENTATION_CONTEXT('2D SPACE',''
  ) );
#100 = PCURVE('',#101,#106);
#101 = PLANE('',#102);
#102 = AXIS2_PLACEMENT_3D('',#103,#104,#105);
#103 = CARTESIAN_POINT('',(8.5,4.,112.));
#104 = DIRECTION('',(0.,1.,-1.110223024625E-16));
#105 = DIRECTION('',(0.,-1.110223024625E-16,-1.));
#106 = DEFINITIONAL_REPRESENTATION('',(#107),#111);
#107 = LINE('',#108,#109);
#108 = CARTESIAN_POINT('',(24.,0.));
#109 = VECTOR('',#110,1.);
#110 = DIRECTION('',(0.,-1.));
#111 = ( GEOMETRIC_REPRESENTATION_CONTEXT(2) 
PARAMETRIC_REPRESENTATION_CONTEXT() REPRESENTATION_CONTEXT('2D SPACE',''
  ) );
#112 = ORIENTED_EDGE('',*,*,#113,.T.);
#113 = EDGE_CURVE('',#86,#114,#116,.T.);
#114 = VERTEX_POINT('',#115);
#115 = CARTESIAN_POINT('',(12.5,0.,84.));
#116 = SURFACE_CURVE('',#117,(#138,#162),.PCURVE_S1.);
#117 = B_SPLINE_CURVE_WITH_KNOTS('',7,(#118,#119,#120,#121,#122,#123,
    #124,#125,#126,#127,#128,#129,#130,#131,#132,#133,#134,#135,#136,
    #137),.UNSPECIFIED.,.F.,.F.,(8,6,6,8),(0.,0.471376778951,
    0.835467584868,1.),.UNSPECIFIED.);
#118 = CARTESIAN_POINT('',(11.842719282327,4.,88.));
#119 = CARTESIAN_POINT('',(11.842719282327,4.,87.630865320627));
#120 = CARTESIAN_POINT('',(11.856142596104,3.960257984496,
    87.262273712635));
#121 = CARTESIAN_POINT('',(11.882919321305,3.880980049444,
    86.896955758614));
#122 = CARTESIAN_POINT('',(11.922282669295,3.761668147976,
    86.537783219117));
#123 = CARTESIAN_POINT('',(11.972744639905,3.601256518275,86.18809196017
    ));
#124 = CARTESIAN_POINT('',(12.031931910352,3.398230943913,
    85.852140370878));
#125 = CARTESIAN_POINT('',(12.146148577651,2.959741190985,
    85.291467477239));
#126 = CARTESIAN_POINT('',(12.199302334676,2.741239862187,
    85.057634748672));
#127 = CARTESIAN_POINT('',(12.254191343643,2.494434771173,84.83772015711
    ));
#128 = CARTESIAN_POINT('',(12.308650714175,2.218698454793,
    84.635784066917));
#129 = CARTESIAN_POINT('',(12.359991459391,1.913801578204,
    84.456609638178));
#130 = CARTESIAN_POINT('',(12.405025147886,1.580148573256,
    84.305850576405));
#131 = CARTESIAN_POINT('',(12.456382544226,1.056121060343,
    84.138143550407));
#132 = CARTESIAN_POINT('',(12.470368570743,0.887713841018,
    84.093228411525));
#133 = CARTESIAN_POINT('',(12.481985085108,0.714913908014,
    84.056423469346));
#134 = CARTESIAN_POINT('',(12.490925302815,0.538701444788,
    84.028358299377));
#135 = CARTESIAN_POINT('',(12.496969881056,0.360105068564,
    84.009469176515));
#136 = CARTESIAN_POINT('',(12.5,0.180182334124,84.));
#137 = CARTESIAN_POINT('',(12.5,1.278457214349E-15,84.));
#138 = PCURVE('',#32,#139);
#139 = DEFINITIONAL_REPRESENTATION('',(#140),#161);
#140 = B_SPLINE_CURVE_WITH_KNOTS('',7,(#141,#142,#143,#144,#145,#146,
    #147,#148,#149,#150,#151,#152,#153,#154,#155,#156,#157,#158,#159,
    #160),.UNSPECIFIED.,.F.,.F.,(8,6,6,8),(0.,0.471376778951,
    0.835467584868,1.),.UNSPECIFIED.);
#141 = CARTESIAN_POINT('',(0.,-3.342719282327));
#142 = CARTESIAN_POINT('',(9.228366984327E-02,-3.342719282327));
#143 = CARTESIAN_POINT('',(0.184431480438,-3.356142596104));
#144 = CARTESIAN_POINT('',(0.277045047126,-3.382919321305));
#145 = CARTESIAN_POINT('',(0.370671353672,-3.422282669295));
#146 = CARTESIAN_POINT('',(0.465892846351,-3.472744639905));
#147 = CARTESIAN_POINT('',(0.563319255784,-3.531931910352));
#148 = CARTESIAN_POINT('',(0.741263656701,-3.646148577651));
#149 = CARTESIAN_POINT('',(0.820963413116,-3.699302334676));
#150 = CARTESIAN_POINT('',(0.903043657042,-3.754191343643));
#151 = CARTESIAN_POINT('',(0.987751295735,-3.808650714175));
#152 = CARTESIAN_POINT('',(1.075390104941,-3.859991459391));
#153 = CARTESIAN_POINT('',(1.166322237024,-3.905025147886));
#154 = CARTESIAN_POINT('',(1.303874609063,-3.956382544226));
#155 = CARTESIAN_POINT('',(1.347395574172,-3.970368570743));
#156 = CARTESIAN_POINT('',(1.39147264063,-3.981985085108));
#157 = CARTESIAN_POINT('',(1.435971664145,-3.990925302815));
#158 = CARTESIAN_POINT('',(1.480770063479,-3.996969881056));
#159 = CARTESIAN_POINT('',(1.525750743264,-4.));
#160 = CARTESIAN_POINT('',(1.570796326795,-4.));
#161 = ( GEOMETRIC_REPRESENTATION_CONTEXT(2) 
PARAMETRIC_REPRESENTATION_CONTEXT() REPRESENTATION_CONTEXT('2D SPACE',''
  ) );
#162 = PCURVE('',#163,#168);
#163 = CYLINDRICAL_SURFACE('',#164,12.5);
#164 = AXIS2_PLACEMENT_3D('',#165,#166,#167);
#165 = CARTESIAN_POINT('',(0.,0.,50.));
#166 = DIRECTION('',(-0.,-0.,-1.));
#167 = DIRECTION('',(1.,0.,0.));
#168 = DEFINITIONAL_REPRESENTATION('',(#169),#190);
#169 = B_SPLINE_CURVE_WITH_KNOTS('',7,(#170,#171,#172,#173,#174,#175,
    #176,#177,#178,#179,#180,#181,#182,#183,#184,#185,#186,#187,#188,
    #189),.UNSPECIFIED.,.F.,.F.,(8,6,6,8),(0.,0.471376778951,
    0.835467584868,1.),.UNSPECIFIED.);
#170 = CARTESIAN_POINT('',(-0.325729487295,-38.));
#171 = CARTESIAN_POINT('',(-0.325729487295,-37.63086532062));
#172 = CARTESIAN_POINT('',(-0.32237367093,-37.26227371263));
#173 = CARTESIAN_POINT('',(-0.315679425268,-36.89695575861));
#174 = CARTESIAN_POINT('',(-0.30562871871,-36.53778321911));
#175 = CARTESIAN_POINT('',(-0.292178624083,-36.18809196017));
#176 = CARTESIAN_POINT('',(-0.275267502213,-35.85214037087));
#177 = CARTESIAN_POINT('',(-0.239017816045,-35.29146747723));
#178 = CARTESIAN_POINT('',(-0.221030273701,-35.05763474867));
#179 = CARTESIAN_POINT('',(-0.200810161621,-34.83772015711));
#180 = CARTESIAN_POINT('',(-0.178337889508,-34.63578406691));
#181 = CARTESIAN_POINT('',(-0.153621903446,-34.45660963817));
#182 = CARTESIAN_POINT('',(-0.126705544592,-34.3058505764));
#183 = CARTESIAN_POINT('',(-8.458249312038E-02,-34.1381435504));
#184 = CARTESIAN_POINT('',(-7.10650200766E-02,-34.09322841152));
#185 = CARTESIAN_POINT('',(-5.721262232997E-02,-34.05642346934));
#186 = CARTESIAN_POINT('',(-4.310100260633E-02,-34.02835829937));
#187 = CARTESIAN_POINT('',(-2.880840737801E-02,-34.00946917651));
#188 = CARTESIAN_POINT('',(-1.441458672992E-02,-34.));
#189 = CARTESIAN_POINT('',(0.,-34.));
#190 = ( GEOMETRIC_REPRESENTATION_CONTEXT(2) 
PARAMETRIC_REPRESENTATION_CONTEXT() REPRESENTATION_CONTEXT('2D SPACE',''
  ) );
#191 = ORIENTED_EDGE('',*,*,#192,.T.);
#192 = EDGE_CURVE('',#114,#24,#193,.T.);
#193 = SURFACE_CURVE('',#194,(#215,#239),.PCURVE_S1.);
#194 = B_SPLINE_CURVE_WITH_KNOTS('',7,(#195,#196,#197,#198,#199,#200,
    #201,#202,#203,#204,#205,#206,#207,#208,#209,#210,#211,#212,#213,
    #214),.UNSPECIFIED.,.F.,.F.,(8,6,6,8),(0.,0.277475379018,
    0.528738203315,1.),.UNSPECIFIED.);
#195 = CARTESIAN_POINT('',(12.5,0.,84.));
#196 = CARTESIAN_POINT('',(12.5,-0.304852011699,84.));
#197 = CARTESIAN_POINT('',(12.491326493463,-0.607088998205,
    84.027106265541));
#198 = CARTESIAN_POINT('',(12.474245174021,-0.902733001685,
    84.080480192299));
#199 = CARTESIAN_POINT('',(12.449666454877,-1.187959400771,
    84.15833377848));
#200 = CARTESIAN_POINT('',(12.419062190934,-1.459265307573,
    84.25794691015));
#201 = CARTESIAN_POINT('',(12.384267801561,-1.713633426631,
    84.375650819564));
#202 = CARTESIAN_POINT('',(12.313576362425,-2.161543861716,
    84.625517312781));
#203 = CARTESIAN_POINT('',(12.277806801599,-2.360384029162,
    84.756280109229));
#204 = CARTESIAN_POINT('',(12.240838286051,-2.545293661383,
    84.897243460306));
#205 = CARTESIAN_POINT('',(12.20353210568,-2.716485415874,
    85.046869134441));
#206 = CARTESIAN_POINT('',(12.166624424046,-2.8742530648,85.203864032708
    ));
#207 = CARTESIAN_POINT('',(12.130732128172,-3.018926555809,
    85.367144570114));
#208 = CARTESIAN_POINT('',(12.031932156943,-3.398229997224,
    85.852139160399));
#209 = CARTESIAN_POINT('',(11.97274466955,-3.601256587558,
    86.188091460944));
#210 = CARTESIAN_POINT('',(11.922282462673,-3.761668761464,
    86.537784158223));
#211 = CARTESIAN_POINT('',(11.882919164472,-3.880980521257,
    86.896957390832));
#212 = CARTESIAN_POINT('',(11.856142545178,-3.960258133585,
    87.262275182724));
#213 = CARTESIAN_POINT('',(11.842719282327,-4.,87.630866005133));
#214 = CARTESIAN_POINT('',(11.842719282327,-4.,88.));
#215 = PCURVE('',#32,#216);
#216 = DEFINITIONAL_REPRESENTATION('',(#217),#238);
#217 = B_SPLINE_CURVE_WITH_KNOTS('',7,(#218,#219,#220,#221,#222,#223,
    #224,#225,#226,#227,#228,#229,#230,#231,#232,#233,#234,#235,#236,
    #237),.UNSPECIFIED.,.F.,.F.,(8,6,6,8),(0.,0.277475379018,
    0.528738203315,1.),.UNSPECIFIED.);
#218 = CARTESIAN_POINT('',(1.570796326795,-4.));
#219 = CARTESIAN_POINT('',(1.64700932972,-4.));
#220 = CARTESIAN_POINT('',(1.722568511323,-3.991326493463));
#221 = CARTESIAN_POINT('',(1.797202831224,-3.974245174021));
#222 = CARTESIAN_POINT('',(1.87062214311,-3.949666454877));
#223 = CARTESIAN_POINT('',(1.942485365689,-3.919062190934));
#224 = CARTESIAN_POINT('',(2.012356121149,-3.884267801561));
#225 = CARTESIAN_POINT('',(2.140578833229,-3.813576362425));
#226 = CARTESIAN_POINT('',(2.199916961028,-3.777806801599));
#227 = CARTESIAN_POINT('',(2.257825314847,-3.740838286051));
#228 = CARTESIAN_POINT('',(2.31444622795,-3.70353210568));
#229 = CARTESIAN_POINT('',(2.369911245117,-3.666624424046));
#230 = CARTESIAN_POINT('',(2.424347127795,-3.630732128172));
#231 = CARTESIAN_POINT('',(2.578273013628,-3.531932156943));
#232 = CARTESIAN_POINT('',(2.675699719033,-3.47274466955));
#233 = CARTESIAN_POINT('',(2.770921562781,-3.422282462673));
#234 = CARTESIAN_POINT('',(2.864548023007,-3.382919164472));
#235 = CARTESIAN_POINT('',(2.957161540357,-3.356142545178));
#236 = CARTESIAN_POINT('',(3.049309154873,-3.342719282327));
#237 = CARTESIAN_POINT('',(3.14159265359,-3.342719282327));
#238 = ( GEOMETRIC_REPRESENTATION_CONTEXT(2) 
PARAMETRIC_REPRESENTATION_CONTEXT() REPRESENTATION_CONTEXT('2D SPACE',''
  ) );
#239 = PCURVE('',#163,#240);
#240 = DEFINITIONAL_REPRESENTATION('',(#241),#262);
#241 = B_SPLINE_CURVE_WITH_KNOTS('',7,(#242,#243,#244,#245,#246,#247,
    #248,#249,#250,#251,#252,#253,#254,#255,#256,#257,#258,#259,#260,
    #261),.UNSPECIFIED.,.F.,.F.,(8,6,6,8),(0.,0.277475379018,
    0.528738203315,1.),.UNSPECIFIED.);
#242 = CARTESIAN_POINT('',(-6.28318530718,-34.));
#243 = CARTESIAN_POINT('',(-6.258797146244,-34.));
#244 = CARTESIAN_POINT('',(-6.234618162362,-34.02710626554));
#245 = CARTESIAN_POINT('',(-6.210943044728,-34.08048019229));
#246 = CARTESIAN_POINT('',(-6.18805552035,-34.15833377848));
#247 = CARTESIAN_POINT('',(-6.166223536402,-34.25794691015));
#248 = CARTESIAN_POINT('',(-6.145688921597,-34.37565081956));
#249 = CARTESIAN_POINT('',(-6.109412556846,-34.62551731278));
#250 = CARTESIAN_POINT('',(-6.093253729068,-34.75628010922));
#251 = CARTESIAN_POINT('',(-6.078172388414,-34.8972434603));
#252 = CARTESIAN_POINT('',(-6.064158852779,-35.04686913444));
#253 = CARTESIAN_POINT('',(-6.051198607688,-35.2038640327));
#254 = CARTESIAN_POINT('',(-6.039274672348,-35.36714457011));
#255 = CARTESIAN_POINT('',(-6.007917883229,-35.85213916039));
#256 = CARTESIAN_POINT('',(-5.991006678355,-36.18809146094));
#257 = CARTESIAN_POINT('',(-5.977556536852,-36.53778415822));
#258 = CARTESIAN_POINT('',(-5.967505842053,-36.89695739083));
#259 = CARTESIAN_POINT('',(-5.960811623667,-37.26227518272));
#260 = CARTESIAN_POINT('',(-5.957455819885,-37.63086600513));
#261 = CARTESIAN_POINT('',(-5.957455819885,-38.));
#262 = ( GEOMETRIC_REPRESENTATION_CONTEXT(2) 
PARAMETRIC_REPRESENTATION_CONTEXT() REPRESENTATION_CONTEXT('2D SPACE',''
  ) );
#263 = ADVANCED_FACE('',(#264),#44,.F.);
#264 = FACE_BOUND('',#265,.F.);
#265 = EDGE_LOOP('',(#266,#296,#322,#323));
#266 = ORIENTED_EDGE('',*,*,#267,.F.);
#267 = EDGE_CURVE('',#268,#270,#272,.T.);
#268 = VERTEX_POINT('',#269);
#269 = CARTESIAN_POINT('',(9.,-4.,112.));
#270 = VERTEX_POINT('',#271);
#271 = CARTESIAN_POINT('',(11.842719282327,-4.,112.));
#272 = SURFACE_CURVE('',#273,(#277,#284),.PCURVE_S1.);
#273 = LINE('',#274,#275);
#274 = CARTESIAN_POINT('',(8.5,-4.,112.));
#275 = VECTOR('',#276,1.);
#276 = DIRECTION('',(1.,0.,0.));
#277 = PCURVE('',#44,#278);
#278 = DEFINITIONAL_REPRESENTATION('',(#279),#283);
#279 = LINE('',#280,#281);
#280 = CARTESIAN_POINT('',(24.,0.));
#281 = VECTOR('',#282,1.);
#282 = DIRECTION('',(0.,-1.));
#283 = ( GEOMETRIC_REPRESENTATION_CONTEXT(2) 
PARAMETRIC_REPRESENTATION_CONTEXT() REPRESENTATION_CONTEXT('2D SPACE',''
  ) );
#284 = PCURVE('',#285,#290);
#285 = CYLINDRICAL_SURFACE('',#286,4.);
#286 = AXIS2_PLACEMENT_3D('',#287,#288,#289);
#287 = CARTESIAN_POINT('',(8.5,1.7763568394E-15,112.));
#288 = DIRECTION('',(-1.,0.,0.));
#289 = DIRECTION('',(0.,-1.,1.110223024625E-16));
#290 = DEFINITIONAL_REPRESENTATION('',(#291),#295);
#291 = LINE('',#292,#293);
#292 = CARTESIAN_POINT('',(0.,0.));
#293 = VECTOR('',#294,1.);
#294 = DIRECTION('',(0.,-1.));
#295 = ( GEOMETRIC_REPRESENTATION_CONTEXT(2) 
PARAMETRIC_REPRESENTATION_CONTEXT() REPRESENTATION_CONTEXT('2D SPACE',''
  ) );
#296 = ORIENTED_EDGE('',*,*,#297,.F.);
#297 = EDGE_CURVE('',#22,#268,#298,.T.);
#298 = SURFACE_CURVE('',#299,(#303,#310),.PCURVE_S1.);
#299 = LINE('',#300,#301);
#300 = CARTESIAN_POINT('',(9.,-4.,88.));
#301 = VECTOR('',#302,1.);
#302 = DIRECTION('',(0.,1.110223024625E-16,1.));
#303 = PCURVE('',#44,#304);
#304 = DEFINITIONAL_REPRESENTATION('',(#305),#309);
#305 = LINE('',#306,#307);
#306 = CARTESIAN_POINT('',(0.,-0.5));
#307 = VECTOR('',#308,1.);
#308 = DIRECTION('',(1.,0.));
#309 = ( GEOMETRIC_REPRESENTATION_CONTEXT(2) 
PARAMETRIC_REPRESENTATION_CONTEXT() REPRESENTATION_CONTEXT('2D SPACE',''
  ) );
#310 = PCURVE('',#311,#316);
#311 = CYLINDRICAL_SURFACE('',#312,0.5);
#312 = AXIS2_PLACEMENT_3D('',#313,#314,#315);
#313 = CARTESIAN_POINT('',(9.,-3.5,88.));
#314 = DIRECTION('',(0.,1.110223024625E-16,1.));
#315 = DIRECTION('',(0.,-1.,1.110223024625E-16));
#316 = DEFINITIONAL_REPRESENTATION('',(#317),#321);
#317 = LINE('',#318,#319);
#318 = CARTESIAN_POINT('',(-0.,0.));
#319 = VECTOR('',#320,1.);
#320 = DIRECTION('',(-0.,1.));
#321 = ( GEOMETRIC_REPRESENTATION_CONTEXT(2) 
PARAMETRIC_REPRESENTATION_CONTEXT() REPRESENTATION_CONTEXT('2D SPACE',''
  ) );
#322 = ORIENTED_EDGE('',*,*,#21,.T.);
#323 = ORIENTED_EDGE('',*,*,#324,.F.);
#324 = EDGE_CURVE('',#270,#24,#325,.T.);
#325 = SURFACE_CURVE('',#326,(#330,#336),.PCURVE_S1.);
#326 = LINE('',#327,#328);
#327 = CARTESIAN_POINT('',(11.842719282327,-4.,50.));
#328 = VECTOR('',#329,1.);
#329 = DIRECTION('',(-0.,-0.,-1.));
#330 = PCURVE('',#44,#331);
#331 = DEFINITIONAL_REPRESENTATION('',(#332),#335);
#332 = B_SPLINE_CURVE_WITH_KNOTS('',1,(#333,#334),.UNSPECIFIED.,.F.,.F.,
  (2,2),(-64.4,-35.6),.PIECEWISE_BEZIER_KNOTS.);
#333 = CARTESIAN_POINT('',(26.4,-3.342719282327));
#334 = CARTESIAN_POINT('',(-2.4,-3.342719282327));
#335 = ( GEOMETRIC_REPRESENTATION_CONTEXT(2) 
PARAMETRIC_REPRESENTATION_CONTEXT() REPRESENTATION_CONTEXT('2D SPACE',''
  ) );
#336 = PCURVE('',#163,#337);
#337 = DEFINITIONAL_REPRESENTATION('',(#338),#341);
#338 = B_SPLINE_CURVE_WITH_KNOTS('',1,(#339,#340),.UNSPECIFIED.,.F.,.F.,
  (2,2),(-64.4,-35.6),.PIECEWISE_BEZIER_KNOTS.);
#339 = CARTESIAN_POINT('',(-5.957455819885,-64.4));
#340 = CARTESIAN_POINT('',(-5.957455819885,-35.6));
#341 = ( GEOMETRIC_REPRESENTATION_CONTEXT(2) 
PARAMETRIC_REPRESENTATION_CONTEXT() REPRESENTATION_CONTEXT('2D SPACE',''
  ) );
#342 = ADVANCED_FACE('',(#343),#73,.F.);
#343 = FACE_BOUND('',#344,.F.);
#344 = EDGE_LOOP('',(#345,#372,#373,#395));
#345 = ORIENTED_EDGE('',*,*,#346,.F.);
#346 = EDGE_CURVE('',#57,#347,#349,.T.);
#347 = VERTEX_POINT('',#348);
#348 = CARTESIAN_POINT('',(8.5,3.5,88.));
#349 = SURFACE_CURVE('',#350,(#355,#361),.PCURVE_S1.);
#350 = CIRCLE('',#351,0.5);
#351 = AXIS2_PLACEMENT_3D('',#352,#353,#354);
#352 = CARTESIAN_POINT('',(9.,3.5,88.));
#353 = DIRECTION('',(0.,-0.,1.));
#354 = DIRECTION('',(0.,1.,0.));
#355 = PCURVE('',#73,#356);
#356 = DEFINITIONAL_REPRESENTATION('',(#357),#360);
#357 = B_SPLINE_CURVE_WITH_KNOTS('',1,(#358,#359),.UNSPECIFIED.,.F.,.F.,
  (2,2),(0.,1.570796326795),.PIECEWISE_BEZIER_KNOTS.);
#358 = CARTESIAN_POINT('',(0.,0.));
#359 = CARTESIAN_POINT('',(0.,1.570796326795));
#360 = ( GEOMETRIC_REPRESENTATION_CONTEXT(2) 
PARAMETRIC_REPRESENTATION_CONTEXT() REPRESENTATION_CONTEXT('2D SPACE',''
  ) );
#361 = PCURVE('',#362,#367);
#362 = CYLINDRICAL_SURFACE('',#363,0.5);
#363 = AXIS2_PLACEMENT_3D('',#364,#365,#366);
#364 = CARTESIAN_POINT('',(9.,3.5,112.));
#365 = DIRECTION('',(0.,-1.110223024625E-16,-1.));
#366 = DIRECTION('',(0.,1.,-1.110223024625E-16));
#367 = DEFINITIONAL_REPRESENTATION('',(#368),#371);
#368 = B_SPLINE_CURVE_WITH_KNOTS('',1,(#369,#370),.UNSPECIFIED.,.F.,.F.,
  (2,2),(0.,1.570796326795),.PIECEWISE_BEZIER_KNOTS.);
#369 = CARTESIAN_POINT('',(0.,24.));
#370 = CARTESIAN_POINT('',(-1.570796326795,24.));
#371 = ( GEOMETRIC_REPRESENTATION_CONTEXT(2) 
PARAMETRIC_REPRESENTATION_CONTEXT() REPRESENTATION_CONTEXT('2D SPACE',''
  ) );
#372 = ORIENTED_EDGE('',*,*,#56,.T.);
#373 = ORIENTED_EDGE('',*,*,#374,.T.);
#374 = EDGE_CURVE('',#22,#375,#377,.T.);
#375 = VERTEX_POINT('',#376);
#376 = CARTESIAN_POINT('',(8.5,-3.5,88.));
#377 = SURFACE_CURVE('',#378,(#383,#389),.PCURVE_S1.);
#378 = CIRCLE('',#379,0.5);
#379 = AXIS2_PLACEMENT_3D('',#380,#381,#382);
#380 = CARTESIAN_POINT('',(9.,-3.5,88.));
#381 = DIRECTION('',(0.,1.224646799147E-16,-1.));
#382 = DIRECTION('',(0.,-1.,-1.224646799147E-16));
#383 = PCURVE('',#73,#384);
#384 = DEFINITIONAL_REPRESENTATION('',(#385),#388);
#385 = B_SPLINE_CURVE_WITH_KNOTS('',1,(#386,#387),.UNSPECIFIED.,.F.,.F.,
  (2,2),(0.,1.570796326795),.PIECEWISE_BEZIER_KNOTS.);
#386 = CARTESIAN_POINT('',(3.14159265359,0.));
#387 = CARTESIAN_POINT('',(3.14159265359,1.570796326795));
#388 = ( GEOMETRIC_REPRESENTATION_CONTEXT(2) 
PARAMETRIC_REPRESENTATION_CONTEXT() REPRESENTATION_CONTEXT('2D SPACE',''
  ) );
#389 = PCURVE('',#311,#390);
#390 = DEFINITIONAL_REPRESENTATION('',(#391),#394);
#391 = B_SPLINE_CURVE_WITH_KNOTS('',1,(#392,#393),.UNSPECIFIED.,.F.,.F.,
  (2,2),(0.,1.570796326795),.PIECEWISE_BEZIER_KNOTS.);
#392 = CARTESIAN_POINT('',(0.,0.));
#393 = CARTESIAN_POINT('',(-1.570796326795,0.));
#394 = ( GEOMETRIC_REPRESENTATION_CONTEXT(2) 
PARAMETRIC_REPRESENTATION_CONTEXT() REPRESENTATION_CONTEXT('2D SPACE',''
  ) );
#395 = ORIENTED_EDGE('',*,*,#396,.F.);
#396 = EDGE_CURVE('',#347,#375,#397,.T.);
#397 = SURFACE_CURVE('',#398,(#403,#410),.PCURVE_S1.);
#398 = CIRCLE('',#399,3.5);
#399 = AXIS2_PLACEMENT_3D('',#400,#401,#402);
#400 = CARTESIAN_POINT('',(8.5,-1.7763568394E-15,88.));
#401 = DIRECTION('',(-1.,0.,-0.));
#402 = DIRECTION('',(-0.,1.,0.));
#403 = PCURVE('',#73,#404);
#404 = DEFINITIONAL_REPRESENTATION('',(#405),#409);
#405 = LINE('',#406,#407);
#406 = CARTESIAN_POINT('',(0.,1.570796326795));
#407 = VECTOR('',#408,1.);
#408 = DIRECTION('',(1.,0.));
#409 = ( GEOMETRIC_REPRESENTATION_CONTEXT(2) 
PARAMETRIC_REPRESENTATION_CONTEXT() REPRESENTATION_CONTEXT('2D SPACE',''
  ) );
#410 = PCURVE('',#411,#416);
#411 = PLANE('',#412);
#412 = AXIS2_PLACEMENT_3D('',#413,#414,#415);
#413 = CARTESIAN_POINT('',(8.5,2.590520390792E-16,100.));
#414 = DIRECTION('',(-1.,-0.,-0.));
#415 = DIRECTION('',(0.,0.,-1.));
#416 = DEFINITIONAL_REPRESENTATION('',(#417),#421);
#417 = CIRCLE('',#418,3.5);
#418 = AXIS2_PLACEMENT_2D('',#419,#420);
#419 = CARTESIAN_POINT('',(12.,2.035408878479E-15));
#420 = DIRECTION('',(0.,-1.));
#421 = ( GEOMETRIC_REPRESENTATION_CONTEXT(2) 
PARAMETRIC_REPRESENTATION_CONTEXT() REPRESENTATION_CONTEXT('2D SPACE',''
  ) );
#422 = ADVANCED_FACE('',(#423),#163,.T.);
#423 = FACE_BOUND('',#424,.F.);
#424 = EDGE_LOOP('',(#425,#454,#475,#476,#497,#571,#594,#621,#622,#694,
    #695,#696));
#425 = ORIENTED_EDGE('',*,*,#426,.F.);
#426 = EDGE_CURVE('',#427,#427,#429,.T.);
#427 = VERTEX_POINT('',#428);
#428 = CARTESIAN_POINT('',(12.5,0.,50.));
#429 = SURFACE_CURVE('',#430,(#435,#442),.PCURVE_S1.);
#430 = CIRCLE('',#431,12.5);
#431 = AXIS2_PLACEMENT_3D('',#432,#433,#434);
#432 = CARTESIAN_POINT('',(0.,0.,50.));
#433 = DIRECTION('',(0.,0.,1.));
#434 = DIRECTION('',(1.,0.,0.));
#435 = PCURVE('',#163,#436);
#436 = DEFINITIONAL_REPRESENTATION('',(#437),#441);
#437 = LINE('',#438,#439);
#438 = CARTESIAN_POINT('',(-0.,0.));
#439 = VECTOR('',#440,1.);
#440 = DIRECTION('',(-1.,0.));
#441 = ( GEOMETRIC_REPRESENTATION_CONTEXT(2) 
PARAMETRIC_REPRESENTATION_CONTEXT() REPRESENTATION_CONTEXT('2D SPACE',''
  ) );
#442 = PCURVE('',#443,#448);
#443 = PLANE('',#444);
#444 = AXIS2_PLACEMENT_3D('',#445,#446,#447);
#445 = CARTESIAN_POINT('',(-1.025580099405E-15,1.398015239264E-15,50.));
#446 = DIRECTION('',(0.,0.,1.));
#447 = DIRECTION('',(1.,0.,-0.));
#448 = DEFINITIONAL_REPRESENTATION('',(#449),#453);
#449 = CIRCLE('',#450,12.5);
#450 = AXIS2_PLACEMENT_2D('',#451,#452);
#451 = CARTESIAN_POINT('',(1.025580099405E-15,-1.398015239264E-15));
#452 = DIRECTION('',(1.,0.));
#453 = ( GEOMETRIC_REPRESENTATION_CONTEXT(2) 
PARAMETRIC_REPRESENTATION_CONTEXT() REPRESENTATION_CONTEXT('2D SPACE',''
  ) );
#454 = ORIENTED_EDGE('',*,*,#455,.T.);
#455 = EDGE_CURVE('',#427,#114,#456,.T.);
#456 = SEAM_CURVE('',#457,(#461,#468),.PCURVE_S1.);
#457 = LINE('',#458,#459);
#458 = CARTESIAN_POINT('',(12.5,0.,50.));
#459 = VECTOR('',#460,1.);
#460 = DIRECTION('',(0.,0.,1.));
#461 = PCURVE('',#163,#462);
#462 = DEFINITIONAL_REPRESENTATION('',(#463),#467);
#463 = LINE('',#464,#465);
#464 = CARTESIAN_POINT('',(-6.28318530718,0.));
#465 = VECTOR('',#466,1.);
#466 = DIRECTION('',(-0.,-1.));
#467 = ( GEOMETRIC_REPRESENTATION_CONTEXT(2) 
PARAMETRIC_REPRESENTATION_CONTEXT() REPRESENTATION_CONTEXT('2D SPACE',''
  ) );
#468 = PCURVE('',#163,#469);
#469 = DEFINITIONAL_REPRESENTATION('',(#470),#474);
#470 = LINE('',#471,#472);
#471 = CARTESIAN_POINT('',(-0.,0.));
#472 = VECTOR('',#473,1.);
#473 = DIRECTION('',(-0.,-1.));
#474 = ( GEOMETRIC_REPRESENTATION_CONTEXT(2) 
PARAMETRIC_REPRESENTATION_CONTEXT() REPRESENTATION_CONTEXT('2D SPACE',''
  ) );
#475 = ORIENTED_EDGE('',*,*,#113,.F.);
#476 = ORIENTED_EDGE('',*,*,#477,.F.);
#477 = EDGE_CURVE('',#478,#86,#480,.T.);
#478 = VERTEX_POINT('',#479);
#479 = CARTESIAN_POINT('',(11.842719282327,4.,112.));
#480 = SURFACE_CURVE('',#481,(#485,#491),.PCURVE_S1.);
#481 = LINE('',#482,#483);
#482 = CARTESIAN_POINT('',(11.842719282327,4.,50.));
#483 = VECTOR('',#484,1.);
#484 = DIRECTION('',(-0.,-0.,-1.));
#485 = PCURVE('',#163,#486);
#486 = DEFINITIONAL_REPRESENTATION('',(#487),#490);
#487 = B_SPLINE_CURVE_WITH_KNOTS('',1,(#488,#489),.UNSPECIFIED.,.F.,.F.,
  (2,2),(-64.4,-35.6),.PIECEWISE_BEZIER_KNOTS.);
#488 = CARTESIAN_POINT('',(-0.325729487295,-64.4));
#489 = CARTESIAN_POINT('',(-0.325729487295,-35.6));
#490 = ( GEOMETRIC_REPRESENTATION_CONTEXT(2) 
PARAMETRIC_REPRESENTATION_CONTEXT() REPRESENTATION_CONTEXT('2D SPACE',''
  ) );
#491 = PCURVE('',#101,#492);
#492 = DEFINITIONAL_REPRESENTATION('',(#493),#496);
#493 = B_SPLINE_CURVE_WITH_KNOTS('',1,(#494,#495),.UNSPECIFIED.,.F.,.F.,
  (2,2),(-64.4,-35.6),.PIECEWISE_BEZIER_KNOTS.);
#494 = CARTESIAN_POINT('',(-2.4,-3.342719282327));
#495 = CARTESIAN_POINT('',(26.4,-3.342719282327));
#496 = ( GEOMETRIC_REPRESENTATION_CONTEXT(2) 
PARAMETRIC_REPRESENTATION_CONTEXT() REPRESENTATION_CONTEXT('2D SPACE',''
  ) );
#497 = ORIENTED_EDGE('',*,*,#498,.F.);
#498 = EDGE_CURVE('',#499,#478,#501,.T.);
#499 = VERTEX_POINT('',#500);
#500 = CARTESIAN_POINT('',(12.5,0.,116.));
#501 = SURFACE_CURVE('',#502,(#523,#547),.PCURVE_S1.);
#502 = B_SPLINE_CURVE_WITH_KNOTS('',7,(#503,#504,#505,#506,#507,#508,
    #509,#510,#511,#512,#513,#514,#515,#516,#517,#518,#519,#520,#521,
    #522),.UNSPECIFIED.,.F.,.F.,(8,6,6,8),(0.,0.277475378854,
    0.528738203208,1.),.UNSPECIFIED.);
#503 = CARTESIAN_POINT('',(12.5,5.436691348604E-16,116.));
#504 = CARTESIAN_POINT('',(12.5,0.304852011918,116.));
#505 = CARTESIAN_POINT('',(12.49132649345,0.607088998232,115.97289373442
    ));
#506 = CARTESIAN_POINT('',(12.474245174026,0.902733001518,
    115.91951980771));
#507 = CARTESIAN_POINT('',(12.4496664549,1.187959400605,115.84166622159)
  );
#508 = CARTESIAN_POINT('',(12.41906219094,1.459265307593,115.74205308987
    ));
#509 = CARTESIAN_POINT('',(12.384267801531,1.713633426824,
    115.62434918032));
#510 = CARTESIAN_POINT('',(12.313576362425,2.161543861716,
    115.37448268721));
#511 = CARTESIAN_POINT('',(12.277806801599,2.360384029162,
    115.24371989077));
#512 = CARTESIAN_POINT('',(12.240838286051,2.545293661383,
    115.10275653969));
#513 = CARTESIAN_POINT('',(12.20353210568,2.716485415874,114.95313086555
    ));
#514 = CARTESIAN_POINT('',(12.166624424046,2.8742530648,114.79613596729)
  );
#515 = CARTESIAN_POINT('',(12.130732128172,3.018926555809,
    114.63285542988));
#516 = CARTESIAN_POINT('',(12.031932156943,3.398229997224,114.1478608396
    ));
#517 = CARTESIAN_POINT('',(11.97274466955,3.601256587558,113.81190853905
    ));
#518 = CARTESIAN_POINT('',(11.922282462673,3.761668761463,
    113.46221584177));
#519 = CARTESIAN_POINT('',(11.882919164472,3.880980521258,
    113.10304260916));
#520 = CARTESIAN_POINT('',(11.856142545178,3.960258133584,
    112.73772481727));
#521 = CARTESIAN_POINT('',(11.842719282327,4.,112.36913399486));
#522 = CARTESIAN_POINT('',(11.842719282327,4.,112.));
#523 = PCURVE('',#163,#524);
#524 = DEFINITIONAL_REPRESENTATION('',(#525),#546);
#525 = B_SPLINE_CURVE_WITH_KNOTS('',7,(#526,#527,#528,#529,#530,#531,
    #532,#533,#534,#535,#536,#537,#538,#539,#540,#541,#542,#543,#544,
    #545),.UNSPECIFIED.,.F.,.F.,(8,6,6,8),(0.,0.277475378854,
    0.528738203208,1.),.UNSPECIFIED.);
#526 = CARTESIAN_POINT('',(0.,-66.));
#527 = CARTESIAN_POINT('',(-2.438816095341E-02,-66.));
#528 = CARTESIAN_POINT('',(-4.85671448202E-02,-65.97289373442));
#529 = CARTESIAN_POINT('',(-7.224226243786E-02,-65.91951980771));
#530 = CARTESIAN_POINT('',(-9.512978681658E-02,-65.84166622159));
#531 = CARTESIAN_POINT('',(-0.116961770779,-65.74205308987));
#532 = CARTESIAN_POINT('',(-0.137496385599,-65.62434918032));
#533 = CARTESIAN_POINT('',(-0.173772750334,-65.37448268721));
#534 = CARTESIAN_POINT('',(-0.189931578111,-65.24371989077));
#535 = CARTESIAN_POINT('',(-0.205012918765,-65.10275653969));
#536 = CARTESIAN_POINT('',(-0.2190264544,-64.95313086555));
#537 = CARTESIAN_POINT('',(-0.231986699492,-64.79613596729));
#538 = CARTESIAN_POINT('',(-0.243910634831,-64.63285542988));
#539 = CARTESIAN_POINT('',(-0.275267423951,-64.1478608396));
#540 = CARTESIAN_POINT('',(-0.292178628825,-63.81190853905));
#541 = CARTESIAN_POINT('',(-0.305628770327,-63.46221584177));
#542 = CARTESIAN_POINT('',(-0.315679465127,-63.10304260916));
#543 = CARTESIAN_POINT('',(-0.322373683513,-62.73772481727));
#544 = CARTESIAN_POINT('',(-0.325729487295,-62.36913399486));
#545 = CARTESIAN_POINT('',(-0.325729487295,-62.));
#546 = ( GEOMETRIC_REPRESENTATION_CONTEXT(2) 
PARAMETRIC_REPRESENTATION_CONTEXT() REPRESENTATION_CONTEXT('2D SPACE',''
  ) );
#547 = PCURVE('',#285,#548);
#548 = DEFINITIONAL_REPRESENTATION('',(#549),#570);
#549 = B_SPLINE_CURVE_WITH_KNOTS('',7,(#550,#551,#552,#553,#554,#555,
    #556,#557,#558,#559,#560,#561,#562,#563,#564,#565,#566,#567,#568,
    #569),.UNSPECIFIED.,.F.,.F.,(8,6,6,8),(0.,0.277475378854,
    0.528738203208,1.),.UNSPECIFIED.);
#550 = CARTESIAN_POINT('',(1.570796326795,-4.));
#551 = CARTESIAN_POINT('',(1.647009329774,-4.));
#552 = CARTESIAN_POINT('',(1.722568511329,-3.99132649345));
#553 = CARTESIAN_POINT('',(1.797202831184,-3.974245174026));
#554 = CARTESIAN_POINT('',(1.870622143067,-3.9496664549));
#555 = CARTESIAN_POINT('',(1.94248536569,-3.91906219094));
#556 = CARTESIAN_POINT('',(2.012356121204,-3.884267801531));
#557 = CARTESIAN_POINT('',(2.140578833229,-3.813576362425));
#558 = CARTESIAN_POINT('',(2.199916961028,-3.777806801599));
#559 = CARTESIAN_POINT('',(2.257825314847,-3.740838286051));
#560 = CARTESIAN_POINT('',(2.31444622795,-3.70353210568));
#561 = CARTESIAN_POINT('',(2.369911245117,-3.666624424046));
#562 = CARTESIAN_POINT('',(2.424347127795,-3.630732128172));
#563 = CARTESIAN_POINT('',(2.578273013628,-3.531932156943));
#564 = CARTESIAN_POINT('',(2.675699719034,-3.47274466955));
#565 = CARTESIAN_POINT('',(2.770921562781,-3.422282462673));
#566 = CARTESIAN_POINT('',(2.864548023007,-3.382919164472));
#567 = CARTESIAN_POINT('',(2.957161540357,-3.356142545178));
#568 = CARTESIAN_POINT('',(3.049309154873,-3.342719282327));
#569 = CARTESIAN_POINT('',(3.14159265359,-3.342719282327));
#570 = ( GEOMETRIC_REPRESENTATION_CONTEXT(2) 
PARAMETRIC_REPRESENTATION_CONTEXT() REPRESENTATION_CONTEXT('2D SPACE',''
  ) );
#571 = ORIENTED_EDGE('',*,*,#572,.T.);
#572 = EDGE_CURVE('',#499,#573,#575,.T.);
#573 = VERTEX_POINT('',#574);
#574 = CARTESIAN_POINT('',(12.5,0.,150.));
#575 = SEAM_CURVE('',#576,(#580,#587),.PCURVE_S1.);
#576 = LINE('',#577,#578);
#577 = CARTESIAN_POINT('',(12.5,0.,50.));
#578 = VECTOR('',#579,1.);
#579 = DIRECTION('',(0.,0.,1.));
#580 = PCURVE('',#163,#581);
#581 = DEFINITIONAL_REPRESENTATION('',(#582),#586);
#582 = LINE('',#583,#584);
#583 = CARTESIAN_POINT('',(-6.28318530718,0.));
#584 = VECTOR('',#585,1.);
#585 = DIRECTION('',(-0.,-1.));
#586 = ( GEOMETRIC_REPRESENTATION_CONTEXT(2) 
PARAMETRIC_REPRESENTATION_CONTEXT() REPRESENTATION_CONTEXT('2D SPACE',''
  ) );
#587 = PCURVE('',#163,#588);
#588 = DEFINITIONAL_REPRESENTATION('',(#589),#593);
#589 = LINE('',#590,#591);
#590 = CARTESIAN_POINT('',(-0.,0.));
#591 = VECTOR('',#592,1.);
#592 = DIRECTION('',(-0.,-1.));
#593 = ( GEOMETRIC_REPRESENTATION_CONTEXT(2) 
PARAMETRIC_REPRESENTATION_CONTEXT() REPRESENTATION_CONTEXT('2D SPACE',''
  ) );
#594 = ORIENTED_EDGE('',*,*,#595,.T.);
#595 = EDGE_CURVE('',#573,#573,#596,.T.);
#596 = SURFACE_CURVE('',#597,(#602,#609),.PCURVE_S1.);
#597 = CIRCLE('',#598,12.5);
#598 = AXIS2_PLACEMENT_3D('',#599,#600,#601);
#599 = CARTESIAN_POINT('',(0.,0.,150.));
#600 = DIRECTION('',(0.,0.,1.));
#601 = DIRECTION('',(1.,0.,0.));
#602 = PCURVE('',#163,#603);
#603 = DEFINITIONAL_REPRESENTATION('',(#604),#608);
#604 = LINE('',#605,#606);
#605 = CARTESIAN_POINT('',(-0.,-100.));
#606 = VECTOR('',#607,1.);
#607 = DIRECTION('',(-1.,0.));
#608 = ( GEOMETRIC_REPRESENTATION_CONTEXT(2) 
PARAMETRIC_REPRESENTATION_CONTEXT() REPRESENTATION_CONTEXT('2D SPACE',''
  ) );
#609 = PCURVE('',#610,#615);
#610 = PLANE('',#611);
#611 = AXIS2_PLACEMENT_3D('',#612,#613,#614);
#612 = CARTESIAN_POINT('',(-4.375808424126E-16,8.024730275931E-16,150.)
  );
#613 = DIRECTION('',(0.,0.,1.));
#614 = DIRECTION('',(1.,0.,-0.));
#615 = DEFINITIONAL_REPRESENTATION('',(#616),#620);
#616 = CIRCLE('',#617,12.5);
#617 = AXIS2_PLACEMENT_2D('',#618,#619);
#618 = CARTESIAN_POINT('',(4.375808424126E-16,-8.024730275931E-16));
#619 = DIRECTION('',(1.,0.));
#620 = ( GEOMETRIC_REPRESENTATION_CONTEXT(2) 
PARAMETRIC_REPRESENTATION_CONTEXT() REPRESENTATION_CONTEXT('2D SPACE',''
  ) );
#621 = ORIENTED_EDGE('',*,*,#572,.F.);
#622 = ORIENTED_EDGE('',*,*,#623,.F.);
#623 = EDGE_CURVE('',#270,#499,#624,.T.);
#624 = SURFACE_CURVE('',#625,(#646,#670),.PCURVE_S1.);
#625 = B_SPLINE_CURVE_WITH_KNOTS('',7,(#626,#627,#628,#629,#630,#631,
    #632,#633,#634,#635,#636,#637,#638,#639,#640,#641,#642,#643,#644,
    #645),.UNSPECIFIED.,.F.,.F.,(8,6,6,8),(0.,0.471379179318,
    0.835471839275,1.),.UNSPECIFIED.);
#626 = CARTESIAN_POINT('',(11.842719282327,-4.,112.));
#627 = CARTESIAN_POINT('',(11.842719282327,-4.,112.36913467937));
#628 = CARTESIAN_POINT('',(11.856142596104,-3.960257984496,
    112.73772628736));
#629 = CARTESIAN_POINT('',(11.882919321305,-3.880980049445,
    113.10304424138));
#630 = CARTESIAN_POINT('',(11.922282669295,-3.761668147975,
    113.46221678088));
#631 = CARTESIAN_POINT('',(11.972744639905,-3.601256518276,
    113.81190803983));
#632 = CARTESIAN_POINT('',(12.031931910352,-3.398230943913,
    114.14785962912));
#633 = CARTESIAN_POINT('',(12.146148577651,-2.959741190984,
    114.70853252276));
#634 = CARTESIAN_POINT('',(12.199302334676,-2.741239862188,
    114.94236525132));
#635 = CARTESIAN_POINT('',(12.254191343643,-2.494434771172,
    115.16227984289));
#636 = CARTESIAN_POINT('',(12.308650714175,-2.218698454794,
    115.36421593308));
#637 = CARTESIAN_POINT('',(12.359991459391,-1.913801578203,
    115.54339036182));
#638 = CARTESIAN_POINT('',(12.405025147886,-1.580148573256,
    115.69414942359));
#639 = CARTESIAN_POINT('',(12.456382049501,-1.056126108294,
    115.86185483407));
#640 = CARTESIAN_POINT('',(12.470368355501,-0.887717622414,
    115.90677093485));
#641 = CARTESIAN_POINT('',(12.481985294194,-0.71491305375,
    115.94357720406));
#642 = CARTESIAN_POINT('',(12.490925699361,-0.538695396511,
    115.9716429373));
#643 = CARTESIAN_POINT('',(12.496970143155,-0.36009590523,
    115.99053164714));
#644 = CARTESIAN_POINT('',(12.5,-0.180174517947,116.));
#645 = CARTESIAN_POINT('',(12.5,-8.881784197001E-16,116.));
#646 = PCURVE('',#163,#647);
#647 = DEFINITIONAL_REPRESENTATION('',(#648),#669);
#648 = B_SPLINE_CURVE_WITH_KNOTS('',7,(#649,#650,#651,#652,#653,#654,
    #655,#656,#657,#658,#659,#660,#661,#662,#663,#664,#665,#666,#667,
    #668),.UNSPECIFIED.,.F.,.F.,(8,6,6,8),(0.,0.471379179318,
    0.835471839275,1.),.UNSPECIFIED.);
#649 = CARTESIAN_POINT('',(-5.957455819885,-62.));
#650 = CARTESIAN_POINT('',(-5.957455819885,-62.36913467937));
#651 = CARTESIAN_POINT('',(-5.960811636249,-62.73772628736));
#652 = CARTESIAN_POINT('',(-5.967505881912,-63.10304424138));
#653 = CARTESIAN_POINT('',(-5.977556588469,-63.46221678088));
#654 = CARTESIAN_POINT('',(-5.991006683097,-63.81190803983));
#655 = CARTESIAN_POINT('',(-6.007917804967,-64.14785962912));
#656 = CARTESIAN_POINT('',(-6.044167491134,-64.70853252276));
#657 = CARTESIAN_POINT('',(-6.062155033478,-64.94236525132));
#658 = CARTESIAN_POINT('',(-6.082375145559,-65.16227984289));
#659 = CARTESIAN_POINT('',(-6.104847417672,-65.36421593308));
#660 = CARTESIAN_POINT('',(-6.129563403734,-65.54339036182));
#661 = CARTESIAN_POINT('',(-6.156479762588,-65.69414942359));
#662 = CARTESIAN_POINT('',(-6.198602408288,-65.86185483407));
#663 = CARTESIAN_POINT('',(-6.212119984446,-65.90677093485));
#664 = CARTESIAN_POINT('',(-6.225972754022,-65.94357720406));
#665 = CARTESIAN_POINT('',(-6.240084789043,-65.9716429373));
#666 = CARTESIAN_POINT('',(-6.254377632995,-65.99053164714));
#667 = CARTESIAN_POINT('',(-6.268771345744,-66.));
#668 = CARTESIAN_POINT('',(-6.28318530718,-66.));
#669 = ( GEOMETRIC_REPRESENTATION_CONTEXT(2) 
PARAMETRIC_REPRESENTATION_CONTEXT() REPRESENTATION_CONTEXT('2D SPACE',''
  ) );
#670 = PCURVE('',#285,#671);
#671 = DEFINITIONAL_REPRESENTATION('',(#672),#693);
#672 = B_SPLINE_CURVE_WITH_KNOTS('',7,(#673,#674,#675,#676,#677,#678,
    #679,#680,#681,#682,#683,#684,#685,#686,#687,#688,#689,#690,#691,
    #692),.UNSPECIFIED.,.F.,.F.,(8,6,6,8),(0.,0.471379179318,
    0.835471839275,1.),.UNSPECIFIED.);
#673 = CARTESIAN_POINT('',(0.,-3.342719282327));
#674 = CARTESIAN_POINT('',(9.228366984322E-02,-3.342719282327));
#675 = CARTESIAN_POINT('',(0.184431480438,-3.356142596104));
#676 = CARTESIAN_POINT('',(0.277045047126,-3.382919321305));
#677 = CARTESIAN_POINT('',(0.370671353672,-3.422282669295));
#678 = CARTESIAN_POINT('',(0.465892846351,-3.472744639905));
#679 = CARTESIAN_POINT('',(0.563319255784,-3.531931910352));
#680 = CARTESIAN_POINT('',(0.741263656701,-3.646148577651));
#681 = CARTESIAN_POINT('',(0.820963413116,-3.699302334676));
#682 = CARTESIAN_POINT('',(0.903043657042,-3.754191343643));
#683 = CARTESIAN_POINT('',(0.987751295734,-3.808650714175));
#684 = CARTESIAN_POINT('',(1.075390104942,-3.859991459391));
#685 = CARTESIAN_POINT('',(1.166322237024,-3.905025147886));
#686 = CARTESIAN_POINT('',(1.303873284023,-3.956382049501));
#687 = CARTESIAN_POINT('',(1.347394623852,-3.970368355501));
#688 = CARTESIAN_POINT('',(1.391472883577,-3.981985294194));
#689 = CARTESIAN_POINT('',(1.435973195811,-3.990925699361));
#690 = CARTESIAN_POINT('',(1.480772354052,-3.996970143155));
#691 = CARTESIAN_POINT('',(1.525752697308,-4.));
#692 = CARTESIAN_POINT('',(1.570796326795,-4.));
#693 = ( GEOMETRIC_REPRESENTATION_CONTEXT(2) 
PARAMETRIC_REPRESENTATION_CONTEXT() REPRESENTATION_CONTEXT('2D SPACE',''
  ) );
#694 = ORIENTED_EDGE('',*,*,#324,.T.);
#695 = ORIENTED_EDGE('',*,*,#192,.F.);
#696 = ORIENTED_EDGE('',*,*,#455,.F.);
#697 = ADVANCED_FACE('',(#698),#101,.F.);
#698 = FACE_BOUND('',#699,.F.);
#699 = EDGE_LOOP('',(#700,#701,#724,#745));
#700 = ORIENTED_EDGE('',*,*,#85,.F.);
#701 = ORIENTED_EDGE('',*,*,#702,.F.);
#702 = EDGE_CURVE('',#703,#57,#705,.T.);
#703 = VERTEX_POINT('',#704);
#704 = CARTESIAN_POINT('',(9.,4.,112.));
#705 = SURFACE_CURVE('',#706,(#710,#717),.PCURVE_S1.);
#706 = LINE('',#707,#708);
#707 = CARTESIAN_POINT('',(9.,4.,112.));
#708 = VECTOR('',#709,1.);
#709 = DIRECTION('',(0.,-1.110223024625E-16,-1.));
#710 = PCURVE('',#101,#711);
#711 = DEFINITIONAL_REPRESENTATION('',(#712),#716);
#712 = LINE('',#713,#714);
#713 = CARTESIAN_POINT('',(0.,-0.5));
#714 = VECTOR('',#715,1.);
#715 = DIRECTION('',(1.,0.));
#716 = ( GEOMETRIC_REPRESENTATION_CONTEXT(2) 
PARAMETRIC_REPRESENTATION_CONTEXT() REPRESENTATION_CONTEXT('2D SPACE',''
  ) );
#717 = PCURVE('',#362,#718);
#718 = DEFINITIONAL_REPRESENTATION('',(#719),#723);
#719 = LINE('',#720,#721);
#720 = CARTESIAN_POINT('',(-0.,0.));
#721 = VECTOR('',#722,1.);
#722 = DIRECTION('',(-0.,1.));
#723 = ( GEOMETRIC_REPRESENTATION_CONTEXT(2) 
PARAMETRIC_REPRESENTATION_CONTEXT() REPRESENTATION_CONTEXT('2D SPACE',''
  ) );
#724 = ORIENTED_EDGE('',*,*,#725,.T.);
#725 = EDGE_CURVE('',#703,#478,#726,.T.);
#726 = SURFACE_CURVE('',#727,(#731,#738),.PCURVE_S1.);
#727 = LINE('',#728,#729);
#728 = CARTESIAN_POINT('',(8.5,4.,112.));
#729 = VECTOR('',#730,1.);
#730 = DIRECTION('',(1.,0.,0.));
#731 = PCURVE('',#101,#732);
#732 = DEFINITIONAL_REPRESENTATION('',(#733),#737);
#733 = LINE('',#734,#735);
#734 = CARTESIAN_POINT('',(0.,0.));
#735 = VECTOR('',#736,1.);
#736 = DIRECTION('',(0.,-1.));
#737 = ( GEOMETRIC_REPRESENTATION_CONTEXT(2) 
PARAMETRIC_REPRESENTATION_CONTEXT() REPRESENTATION_CONTEXT('2D SPACE',''
  ) );
#738 = PCURVE('',#285,#739);
#739 = DEFINITIONAL_REPRESENTATION('',(#740),#744);
#740 = LINE('',#741,#742);
#741 = CARTESIAN_POINT('',(3.14159265359,0.));
#742 = VECTOR('',#743,1.);
#743 = DIRECTION('',(0.,-1.));
#744 = ( GEOMETRIC_REPRESENTATION_CONTEXT(2) 
PARAMETRIC_REPRESENTATION_CONTEXT() REPRESENTATION_CONTEXT('2D SPACE',''
  ) );
#745 = ORIENTED_EDGE('',*,*,#477,.T.);
#746 = ADVANCED_FACE('',(#747),#285,.F.);
#747 = FACE_BOUND('',#748,.F.);
#748 = EDGE_LOOP('',(#749,#750,#777,#778,#779));
#749 = ORIENTED_EDGE('',*,*,#725,.F.);
#750 = ORIENTED_EDGE('',*,*,#751,.F.);
#751 = EDGE_CURVE('',#268,#703,#752,.T.);
#752 = SURFACE_CURVE('',#753,(#758,#765),.PCURVE_S1.);
#753 = CIRCLE('',#754,4.);
#754 = AXIS2_PLACEMENT_3D('',#755,#756,#757);
#755 = CARTESIAN_POINT('',(9.,1.7763568394E-15,112.));
#756 = DIRECTION('',(-1.,-0.,0.));
#757 = DIRECTION('',(0.,-1.,0.));
#758 = PCURVE('',#285,#759);
#759 = DEFINITIONAL_REPRESENTATION('',(#760),#764);
#760 = LINE('',#761,#762);
#761 = CARTESIAN_POINT('',(0.,-0.5));
#762 = VECTOR('',#763,1.);
#763 = DIRECTION('',(1.,0.));
#764 = ( GEOMETRIC_REPRESENTATION_CONTEXT(2) 
PARAMETRIC_REPRESENTATION_CONTEXT() REPRESENTATION_CONTEXT('2D SPACE',''
  ) );
#765 = PCURVE('',#766,#771);
#766 = TOROIDAL_SURFACE('',#767,3.5,0.5);
#767 = AXIS2_PLACEMENT_3D('',#768,#769,#770);
#768 = CARTESIAN_POINT('',(9.,1.7763568394E-15,112.));
#769 = DIRECTION('',(-1.,-0.,-0.));
#770 = DIRECTION('',(0.,-1.,0.));
#771 = DEFINITIONAL_REPRESENTATION('',(#772),#776);
#772 = LINE('',#773,#774);
#773 = CARTESIAN_POINT('',(0.,0.));
#774 = VECTOR('',#775,1.);
#775 = DIRECTION('',(1.,0.));
#776 = ( GEOMETRIC_REPRESENTATION_CONTEXT(2) 
PARAMETRIC_REPRESENTATION_CONTEXT() REPRESENTATION_CONTEXT('2D SPACE',''
  ) );
#777 = ORIENTED_EDGE('',*,*,#267,.T.);
#778 = ORIENTED_EDGE('',*,*,#623,.T.);
#779 = ORIENTED_EDGE('',*,*,#498,.T.);
#780 = ADVANCED_FACE('',(#781),#311,.F.);
#781 = FACE_BOUND('',#782,.T.);
#782 = EDGE_LOOP('',(#783,#784,#807,#827));
#783 = ORIENTED_EDGE('',*,*,#374,.T.);
#784 = ORIENTED_EDGE('',*,*,#785,.T.);
#785 = EDGE_CURVE('',#375,#786,#788,.T.);
#786 = VERTEX_POINT('',#787);
#787 = CARTESIAN_POINT('',(8.5,-3.5,112.));
#788 = SURFACE_CURVE('',#789,(#793,#800),.PCURVE_S1.);
#789 = LINE('',#790,#791);
#790 = CARTESIAN_POINT('',(8.5,-3.5,88.));
#791 = VECTOR('',#792,1.);
#792 = DIRECTION('',(0.,1.110223024625E-16,1.));
#793 = PCURVE('',#311,#794);
#794 = DEFINITIONAL_REPRESENTATION('',(#795),#799);
#795 = LINE('',#796,#797);
#796 = CARTESIAN_POINT('',(-1.570796326795,0.));
#797 = VECTOR('',#798,1.);
#798 = DIRECTION('',(-0.,1.));
#799 = ( GEOMETRIC_REPRESENTATION_CONTEXT(2) 
PARAMETRIC_REPRESENTATION_CONTEXT() REPRESENTATION_CONTEXT('2D SPACE',''
  ) );
#800 = PCURVE('',#411,#801);
#801 = DEFINITIONAL_REPRESENTATION('',(#802),#806);
#802 = LINE('',#803,#804);
#803 = CARTESIAN_POINT('',(12.,3.5));
#804 = VECTOR('',#805,1.);
#805 = DIRECTION('',(-1.,-1.110223024625E-16));
#806 = ( GEOMETRIC_REPRESENTATION_CONTEXT(2) 
PARAMETRIC_REPRESENTATION_CONTEXT() REPRESENTATION_CONTEXT('2D SPACE',''
  ) );
#807 = ORIENTED_EDGE('',*,*,#808,.F.);
#808 = EDGE_CURVE('',#268,#786,#809,.T.);
#809 = SURFACE_CURVE('',#810,(#815,#821),.PCURVE_S1.);
#810 = CIRCLE('',#811,0.5);
#811 = AXIS2_PLACEMENT_3D('',#812,#813,#814);
#812 = CARTESIAN_POINT('',(9.,-3.5,112.));
#813 = DIRECTION('',(-0.,-1.110223024625E-16,-1.));
#814 = DIRECTION('',(0.,-1.,1.110223024625E-16));
#815 = PCURVE('',#311,#816);
#816 = DEFINITIONAL_REPRESENTATION('',(#817),#820);
#817 = B_SPLINE_CURVE_WITH_KNOTS('',1,(#818,#819),.UNSPECIFIED.,.F.,.F.,
  (2,2),(0.,1.570796326795),.PIECEWISE_BEZIER_KNOTS.);
#818 = CARTESIAN_POINT('',(0.,24.));
#819 = CARTESIAN_POINT('',(-1.570796326795,24.));
#820 = ( GEOMETRIC_REPRESENTATION_CONTEXT(2) 
PARAMETRIC_REPRESENTATION_CONTEXT() REPRESENTATION_CONTEXT('2D SPACE',''
  ) );
#821 = PCURVE('',#766,#822);
#822 = DEFINITIONAL_REPRESENTATION('',(#823),#826);
#823 = B_SPLINE_CURVE_WITH_KNOTS('',1,(#824,#825),.UNSPECIFIED.,.F.,.F.,
  (2,2),(0.,1.570796326795),.PIECEWISE_BEZIER_KNOTS.);
#824 = CARTESIAN_POINT('',(0.,0.));
#825 = CARTESIAN_POINT('',(0.,1.570796326795));
#826 = ( GEOMETRIC_REPRESENTATION_CONTEXT(2) 
PARAMETRIC_REPRESENTATION_CONTEXT() REPRESENTATION_CONTEXT('2D SPACE',''
  ) );
#827 = ORIENTED_EDGE('',*,*,#297,.F.);
#828 = ADVANCED_FACE('',(#829),#362,.F.);
#829 = FACE_BOUND('',#830,.T.);
#830 = EDGE_LOOP('',(#831,#853,#874,#875));
#831 = ORIENTED_EDGE('',*,*,#832,.T.);
#832 = EDGE_CURVE('',#703,#833,#835,.T.);
#833 = VERTEX_POINT('',#834);
#834 = CARTESIAN_POINT('',(8.5,3.5,112.));
#835 = SURFACE_CURVE('',#836,(#841,#847),.PCURVE_S1.);
#836 = CIRCLE('',#837,0.5);
#837 = AXIS2_PLACEMENT_3D('',#838,#839,#840);
#838 = CARTESIAN_POINT('',(9.,3.5,112.));
#839 = DIRECTION('',(0.,-1.224646799147E-16,1.));
#840 = DIRECTION('',(-0.,1.,1.224646799147E-16));
#841 = PCURVE('',#362,#842);
#842 = DEFINITIONAL_REPRESENTATION('',(#843),#846);
#843 = B_SPLINE_CURVE_WITH_KNOTS('',1,(#844,#845),.UNSPECIFIED.,.F.,.F.,
  (2,2),(0.,1.570796326795),.PIECEWISE_BEZIER_KNOTS.);
#844 = CARTESIAN_POINT('',(0.,0.));
#845 = CARTESIAN_POINT('',(-1.570796326795,0.));
#846 = ( GEOMETRIC_REPRESENTATION_CONTEXT(2) 
PARAMETRIC_REPRESENTATION_CONTEXT() REPRESENTATION_CONTEXT('2D SPACE',''
  ) );
#847 = PCURVE('',#766,#848);
#848 = DEFINITIONAL_REPRESENTATION('',(#849),#852);
#849 = B_SPLINE_CURVE_WITH_KNOTS('',1,(#850,#851),.UNSPECIFIED.,.F.,.F.,
  (2,2),(0.,1.570796326795),.PIECEWISE_BEZIER_KNOTS.);
#850 = CARTESIAN_POINT('',(3.14159265359,0.));
#851 = CARTESIAN_POINT('',(3.14159265359,1.570796326795));
#852 = ( GEOMETRIC_REPRESENTATION_CONTEXT(2) 
PARAMETRIC_REPRESENTATION_CONTEXT() REPRESENTATION_CONTEXT('2D SPACE',''
  ) );
#853 = ORIENTED_EDGE('',*,*,#854,.T.);
#854 = EDGE_CURVE('',#833,#347,#855,.T.);
#855 = SURFACE_CURVE('',#856,(#860,#867),.PCURVE_S1.);
#856 = LINE('',#857,#858);
#857 = CARTESIAN_POINT('',(8.5,3.5,112.));
#858 = VECTOR('',#859,1.);
#859 = DIRECTION('',(0.,-1.110223024625E-16,-1.));
#860 = PCURVE('',#362,#861);
#861 = DEFINITIONAL_REPRESENTATION('',(#862),#866);
#862 = LINE('',#863,#864);
#863 = CARTESIAN_POINT('',(-1.570796326795,0.));
#864 = VECTOR('',#865,1.);
#865 = DIRECTION('',(-0.,1.));
#866 = ( GEOMETRIC_REPRESENTATION_CONTEXT(2) 
PARAMETRIC_REPRESENTATION_CONTEXT() REPRESENTATION_CONTEXT('2D SPACE',''
  ) );
#867 = PCURVE('',#411,#868);
#868 = DEFINITIONAL_REPRESENTATION('',(#869),#873);
#869 = LINE('',#870,#871);
#870 = CARTESIAN_POINT('',(-12.,-3.5));
#871 = VECTOR('',#872,1.);
#872 = DIRECTION('',(1.,1.110223024625E-16));
#873 = ( GEOMETRIC_REPRESENTATION_CONTEXT(2) 
PARAMETRIC_REPRESENTATION_CONTEXT() REPRESENTATION_CONTEXT('2D SPACE',''
  ) );
#874 = ORIENTED_EDGE('',*,*,#346,.F.);
#875 = ORIENTED_EDGE('',*,*,#702,.F.);
#876 = ADVANCED_FACE('',(#877),#411,.F.);
#877 = FACE_BOUND('',#878,.F.);
#878 = EDGE_LOOP('',(#879,#880,#881,#903));
#879 = ORIENTED_EDGE('',*,*,#396,.T.);
#880 = ORIENTED_EDGE('',*,*,#785,.T.);
#881 = ORIENTED_EDGE('',*,*,#882,.T.);
#882 = EDGE_CURVE('',#786,#833,#883,.T.);
#883 = SURFACE_CURVE('',#884,(#889,#896),.PCURVE_S1.);
#884 = CIRCLE('',#885,3.5);
#885 = AXIS2_PLACEMENT_3D('',#886,#887,#888);
#886 = CARTESIAN_POINT('',(8.5,1.7763568394E-15,112.));
#887 = DIRECTION('',(-1.,-0.,0.));
#888 = DIRECTION('',(0.,-1.,0.));
#889 = PCURVE('',#411,#890);
#890 = DEFINITIONAL_REPRESENTATION('',(#891),#895);
#891 = CIRCLE('',#892,3.5);
#892 = AXIS2_PLACEMENT_2D('',#893,#894);
#893 = CARTESIAN_POINT('',(-12.,-1.517304800321E-15));
#894 = DIRECTION('',(0.,1.));
#895 = ( GEOMETRIC_REPRESENTATION_CONTEXT(2) 
PARAMETRIC_REPRESENTATION_CONTEXT() REPRESENTATION_CONTEXT('2D SPACE',''
  ) );
#896 = PCURVE('',#766,#897);
#897 = DEFINITIONAL_REPRESENTATION('',(#898),#902);
#898 = LINE('',#899,#900);
#899 = CARTESIAN_POINT('',(0.,1.570796326795));
#900 = VECTOR('',#901,1.);
#901 = DIRECTION('',(1.,0.));
#902 = ( GEOMETRIC_REPRESENTATION_CONTEXT(2) 
PARAMETRIC_REPRESENTATION_CONTEXT() REPRESENTATION_CONTEXT('2D SPACE',''
  ) );
#903 = ORIENTED_EDGE('',*,*,#854,.T.);
#904 = ADVANCED_FACE('',(#905,#936),#443,.T.);
#905 = FACE_BOUND('',#906,.T.);
#906 = EDGE_LOOP('',(#907));
#907 = ORIENTED_EDGE('',*,*,#908,.T.);
#908 = EDGE_CURVE('',#909,#909,#911,.T.);
#909 = VERTEX_POINT('',#910);
#910 = CARTESIAN_POINT('',(14.,0.,50.));
#911 = SURFACE_CURVE('',#912,(#917,#924),.PCURVE_S1.);
#912 = CIRCLE('',#913,14.);
#913 = AXIS2_PLACEMENT_3D('',#914,#915,#916);
#914 = CARTESIAN_POINT('',(0.,0.,50.));
#915 = DIRECTION('',(0.,0.,1.));
#916 = DIRECTION('',(1.,0.,-0.));
#917 = PCURVE('',#443,#918);
#918 = DEFINITIONAL_REPRESENTATION('',(#919),#923);
#919 = CIRCLE('',#920,14.);
#920 = AXIS2_PLACEMENT_2D('',#921,#922);
#921 = CARTESIAN_POINT('',(1.025580099405E-15,-1.398015239264E-15));
#922 = DIRECTION('',(1.,0.));
#923 = ( GEOMETRIC_REPRESENTATION_CONTEXT(2) 
PARAMETRIC_REPRESENTATION_CONTEXT() REPRESENTATION_CONTEXT('2D SPACE',''
  ) );
#924 = PCURVE('',#925,#930);
#925 = TOROIDAL_SURFACE('',#926,14.,2.);
#926 = AXIS2_PLACEMENT_3D('',#927,#928,#929);
#927 = CARTESIAN_POINT('',(0.,0.,48.));
#928 = DIRECTION('',(0.,0.,1.));
#929 = DIRECTION('',(1.,0.,-0.));
#930 = DEFINITIONAL_REPRESENTATION('',(#931),#935);
#931 = LINE('',#932,#933);
#932 = CARTESIAN_POINT('',(0.,1.570796326795));
#933 = VECTOR('',#934,1.);
#934 = DIRECTION('',(1.,0.));
#935 = ( GEOMETRIC_REPRESENTATION_CONTEXT(2) 
PARAMETRIC_REPRESENTATION_CONTEXT() REPRESENTATION_CONTEXT('2D SPACE',''
  ) );
#936 = FACE_BOUND('',#937,.T.);
#937 = EDGE_LOOP('',(#938));
#938 = ORIENTED_EDGE('',*,*,#426,.F.);
#939 = ADVANCED_FACE('',(#940),#610,.T.);
#940 = FACE_BOUND('',#941,.T.);
#941 = EDGE_LOOP('',(#942));
#942 = ORIENTED_EDGE('',*,*,#595,.T.);
#943 = ADVANCED_FACE('',(#944),#766,.F.);
#944 = FACE_BOUND('',#945,.F.);
#945 = EDGE_LOOP('',(#946,#947,#948,#949));
#946 = ORIENTED_EDGE('',*,*,#808,.F.);
#947 = ORIENTED_EDGE('',*,*,#751,.T.);
#948 = ORIENTED_EDGE('',*,*,#832,.T.);
#949 = ORIENTED_EDGE('',*,*,#882,.F.);
#950 = ADVANCED_FACE('',(#951),#925,.T.);
#951 = FACE_BOUND('',#952,.T.);
#952 = EDGE_LOOP('',(#953,#975,#1002,#1003));
#953 = ORIENTED_EDGE('',*,*,#954,.F.);
#954 = EDGE_CURVE('',#955,#909,#957,.T.);
#955 = VERTEX_POINT('',#956);
#956 = CARTESIAN_POINT('',(16.,0.,48.));
#957 = SEAM_CURVE('',#958,(#963,#969),.PCURVE_S1.);
#958 = CIRCLE('',#959,2.);
#959 = AXIS2_PLACEMENT_3D('',#960,#961,#962);
#960 = CARTESIAN_POINT('',(14.,0.,48.));
#961 = DIRECTION('',(0.,-1.,0.));
#962 = DIRECTION('',(1.,0.,0.));
#963 = PCURVE('',#925,#964);
#964 = DEFINITIONAL_REPRESENTATION('',(#965),#968);
#965 = B_SPLINE_CURVE_WITH_KNOTS('',1,(#966,#967),.UNSPECIFIED.,.F.,.F.,
  (2,2),(0.,1.570796326795),.PIECEWISE_BEZIER_KNOTS.);
#966 = CARTESIAN_POINT('',(0.,0.));
#967 = CARTESIAN_POINT('',(0.,1.570796326795));
#968 = ( GEOMETRIC_REPRESENTATION_CONTEXT(2) 
PARAMETRIC_REPRESENTATION_CONTEXT() REPRESENTATION_CONTEXT('2D SPACE',''
  ) );
#969 = PCURVE('',#925,#970);
#970 = DEFINITIONAL_REPRESENTATION('',(#971),#974);
#971 = B_SPLINE_CURVE_WITH_KNOTS('',1,(#972,#973),.UNSPECIFIED.,.F.,.F.,
  (2,2),(0.,1.570796326795),.PIECEWISE_BEZIER_KNOTS.);
#972 = CARTESIAN_POINT('',(6.28318530718,0.));
#973 = CARTESIAN_POINT('',(6.28318530718,1.570796326795));
#974 = ( GEOMETRIC_REPRESENTATION_CONTEXT(2) 
PARAMETRIC_REPRESENTATION_CONTEXT() REPRESENTATION_CONTEXT('2D SPACE',''
  ) );
#975 = ORIENTED_EDGE('',*,*,#976,.T.);
#976 = EDGE_CURVE('',#955,#955,#977,.T.);
#977 = SURFACE_CURVE('',#978,(#983,#990),.PCURVE_S1.);
#978 = CIRCLE('',#979,16.);
#979 = AXIS2_PLACEMENT_3D('',#980,#981,#982);
#980 = CARTESIAN_POINT('',(0.,0.,48.));
#981 = DIRECTION('',(0.,0.,1.));
#982 = DIRECTION('',(1.,0.,-0.));
#983 = PCURVE('',#925,#984);
#984 = DEFINITIONAL_REPRESENTATION('',(#985),#989);
#985 = LINE('',#986,#987);
#986 = CARTESIAN_POINT('',(0.,0.));
#987 = VECTOR('',#988,1.);
#988 = DIRECTION('',(1.,0.));
#989 = ( GEOMETRIC_REPRESENTATION_CONTEXT(2) 
PARAMETRIC_REPRESENTATION_CONTEXT() REPRESENTATION_CONTEXT('2D SPACE',''
  ) );
#990 = PCURVE('',#991,#996);
#991 = CYLINDRICAL_SURFACE('',#992,16.);
#992 = AXIS2_PLACEMENT_3D('',#993,#994,#995);
#993 = CARTESIAN_POINT('',(0.,0.,0.));
#994 = DIRECTION('',(-0.,-0.,-1.));
#995 = DIRECTION('',(1.,0.,0.));
#996 = DEFINITIONAL_REPRESENTATION('',(#997),#1001);
#997 = LINE('',#998,#999);
#998 = CARTESIAN_POINT('',(-0.,-48.));
#999 = VECTOR('',#1000,1.);
#1000 = DIRECTION('',(-1.,0.));
#1001 = ( GEOMETRIC_REPRESENTATION_CONTEXT(2) 
PARAMETRIC_REPRESENTATION_CONTEXT() REPRESENTATION_CONTEXT('2D SPACE',''
  ) );
#1002 = ORIENTED_EDGE('',*,*,#954,.T.);
#1003 = ORIENTED_EDGE('',*,*,#908,.F.);
#1004 = ADVANCED_FACE('',(#1005),#991,.T.);
#1005 = FACE_BOUND('',#1006,.F.);
#1006 = EDGE_LOOP('',(#1007,#1030,#1031,#1032));
#1007 = ORIENTED_EDGE('',*,*,#1008,.T.);
#1008 = EDGE_CURVE('',#1009,#955,#1011,.T.);
#1009 = VERTEX_POINT('',#1010);
#1010 = CARTESIAN_POINT('',(16.,0.,0.));
#1011 = SEAM_CURVE('',#1012,(#1016,#1023),.PCURVE_S1.);
#1012 = LINE('',#1013,#1014);
#1013 = CARTESIAN_POINT('',(16.,0.,0.));
#1014 = VECTOR('',#1015,1.);
#1015 = DIRECTION('',(0.,0.,1.));
#1016 = PCURVE('',#991,#1017);
#1017 = DEFINITIONAL_REPRESENTATION('',(#1018),#1022);
#1018 = LINE('',#1019,#1020);
#1019 = CARTESIAN_POINT('',(-0.,0.));
#1020 = VECTOR('',#1021,1.);
#1021 = DIRECTION('',(-0.,-1.));
#1022 = ( GEOMETRIC_REPRESENTATION_CONTEXT(2) 
PARAMETRIC_REPRESENTATION_CONTEXT() REPRESENTATION_CONTEXT('2D SPACE',''
  ) );
#1023 = PCURVE('',#991,#1024);
#1024 = DEFINITIONAL_REPRESENTATION('',(#1025),#1029);
#1025 = LINE('',#1026,#1027);
#1026 = CARTESIAN_POINT('',(-6.28318530718,0.));
#1027 = VECTOR('',#1028,1.);
#1028 = DIRECTION('',(-0.,-1.));
#1029 = ( GEOMETRIC_REPRESENTATION_CONTEXT(2) 
PARAMETRIC_REPRESENTATION_CONTEXT() REPRESENTATION_CONTEXT('2D SPACE',''
  ) );
#1030 = ORIENTED_EDGE('',*,*,#976,.T.);
#1031 = ORIENTED_EDGE('',*,*,#1008,.F.);
#1032 = ORIENTED_EDGE('',*,*,#1033,.F.);
#1033 = EDGE_CURVE('',#1009,#1009,#1034,.T.);
#1034 = SURFACE_CURVE('',#1035,(#1040,#1047),.PCURVE_S1.);
#1035 = CIRCLE('',#1036,16.);
#1036 = AXIS2_PLACEMENT_3D('',#1037,#1038,#1039);
#1037 = CARTESIAN_POINT('',(0.,0.,0.));
#1038 = DIRECTION('',(0.,0.,1.));
#1039 = DIRECTION('',(1.,0.,0.));
#1040 = PCURVE('',#991,#1041);
#1041 = DEFINITIONAL_REPRESENTATION('',(#1042),#1046);
#1042 = LINE('',#1043,#1044);
#1043 = CARTESIAN_POINT('',(-0.,0.));
#1044 = VECTOR('',#1045,1.);
#1045 = DIRECTION('',(-1.,0.));
#1046 = ( GEOMETRIC_REPRESENTATION_CONTEXT(2) 
PARAMETRIC_REPRESENTATION_CONTEXT() REPRESENTATION_CONTEXT('2D SPACE',''
  ) );
#1047 = PCURVE('',#1048,#1053);
#1048 = PLANE('',#1049);
#1049 = AXIS2_PLACEMENT_3D('',#1050,#1051,#1052);
#1050 = CARTESIAN_POINT('',(-1.025580099405E-15,1.398015239264E-15,0.));
#1051 = DIRECTION('',(0.,0.,1.));
#1052 = DIRECTION('',(1.,0.,-0.));
#1053 = DEFINITIONAL_REPRESENTATION('',(#1054),#1058);
#1054 = CIRCLE('',#1055,16.);
#1055 = AXIS2_PLACEMENT_2D('',#1056,#1057);
#1056 = CARTESIAN_POINT('',(1.025580099405E-15,-1.398015239264E-15));
#1057 = DIRECTION('',(1.,0.));
#1058 = ( GEOMETRIC_REPRESENTATION_CONTEXT(2) 
PARAMETRIC_REPRESENTATION_CONTEXT() REPRESENTATION_CONTEXT('2D SPACE',''
  ) );
#1059 = ADVANCED_FACE('',(#1060),#1048,.F.);
#1060 = FACE_BOUND('',#1061,.F.);
#1061 = EDGE_LOOP('',(#1062));
#1062 = ORIENTED_EDGE('',*,*,#1033,.T.);
#1063 = ( GEOMETRIC_REPRESENTATION_CONTEXT(3) 
GLOBAL_UNCERTAINTY_ASSIGNED_CONTEXT((#1067)) 
GLOBAL_UNIT_ASSIGNED_CONTEXT((#1064,#1065,#1066)) REPRESENTATION_CONTEXT
('Context #1','3D Context with UNIT and UNCERTAINTY') );
#1064 = ( LENGTH_UNIT() NAMED_UNIT(*) SI_UNIT(.MILLI.,.METRE.) );
#1065 = ( NAMED_UNIT(*) PLANE_ANGLE_UNIT() SI_UNIT($,.RADIAN.) );
#1066 = ( NAMED_UNIT(*) SI_UNIT($,.STERADIAN.) SOLID_ANGLE_UNIT() );
#1067 = UNCERTAINTY_MEASURE_WITH_UNIT(LENGTH_MEASURE(1.E-07),#1064,
  'distance_accuracy_value','confusion accuracy');
#1068 = PRODUCT_RELATED_PRODUCT_CATEGORY('part',$,(#7));
ENDSEC;
END-ISO-10303-21;
