ISO-10303-21;
HEADER;
FILE_DESCRIPTION(('Open CASCADE Model'),'2;1');
FILE_NAME('Open CASCADE Shape Model','2026-08-14T20:26:08',('Author'),(
    'Open CASCADE'),'Open CASCADE STEP processor 7.9','Open CASCADE 7.9'
  ,'Unknown');
FILE_SCHEMA(('AUTOMOTIVE_DESIGN { 1 0 10303 214 1 1 1 1 }'));
ENDSEC;
DATA;
#1 = APPLICATION_PROTOCOL_DEFINITION('international standard',
  'automotive_design',2000,#2);
#2 = APPLICATION_CONTEXT(
  'core data for automotive mechanical design processes');
#3 = SHAPE_DEFINITION_REPRESENTATION(#4,#10);
#4 = PRODUCT_DEFINITION_SHAPE('','',#5);
#5 = PRODUCT_DEFINITION('design','',#6,#9);
#6 = PRODUCT_DEFINITION_FORMATION('','',#7);
#7 = PRODUCT('Open CASCADE STEP translator 7.9 14',
  'Open CASCADE STEP translator 7.9 14','',(#8));
#8 = PRODUCT_CONTEXT('',#2,'mechanical');
#9 = PRODUCT_DEFINITION_CONTEXT('part definition',#2,'design');
#10 = ADVANCED_BREP_SHAPE_REPRESENTATION('',(#11,#15),#477);
#11 = AXIS2_PLACEMENT_3D('',#12,#13,#14);
#12 = CARTESIAN_POINT('',(0.,0.,0.));
#13 = DIRECTION('',(0.,0.,1.));
#14 = DIRECTION('',(1.,0.,-0.));
#15 = MANIFOLD_SOLID_BREP('',#16);
#16 = CLOSED_SHELL('',(#17,#444,#448,#472));
#17 = ADVANCED_FACE('',(#18),#34,.T.);
#18 = FACE_BOUND('',#19,.T.);
#19 = EDGE_LOOP('',(#20,#120,#148,#254,#290,#443));
#20 = ORIENTED_EDGE('',*,*,#21,.T.);
#21 = EDGE_CURVE('',#22,#22,#24,.T.);
#22 = VERTEX_POINT('',#23);
#23 = CARTESIAN_POINT('',(6.,-7.348722325107E-16,5.684341886081E-14));
#24 = SURFACE_CURVE('',#25,(#33,#104),.PCURVE_S1.);
#25 = ( BOUNDED_CURVE() B_SPLINE_CURVE(6,(#26,#27,#28,#29,#30,#31,#32),
.UNSPECIFIED.,.T.,.F.) B_SPLINE_CURVE_WITH_KNOTS((1,6,6,1),(
    -6.28318530718,0.,6.28318530718,12.566370614359),.UNSPECIFIED.) 
CURVE() GEOMETRIC_REPRESENTATION_ITEM() RATIONAL_B_SPLINE_CURVE((
    1.669078461068,1.03672962321,1.038346699848,0.853534330196,
1.038346699848,1.03672962321,1.669078461068)) REPRESENTATION_ITEM('') );
#26 = CARTESIAN_POINT('',(6.,-7.348722325107E-16,5.684341886081E-14));
#27 = CARTESIAN_POINT('',(6.,9.969258453426,5.684341886081E-14));
#28 = CARTESIAN_POINT('',(-6.327289143289,11.400674299474,
    -1.136868377216E-13));
#29 = CARTESIAN_POINT('',(-16.49470152605,2.07505453792E-14,0.));
#30 = CARTESIAN_POINT('',(-6.327289143289,-11.40067429947,
    2.273736754432E-13));
#31 = CARTESIAN_POINT('',(6.,-9.969258453426,-5.684341886081E-14));
#32 = CARTESIAN_POINT('',(6.,-7.348722325107E-16,5.684341886081E-14));
#33 = PCURVE('',#34,#98);
#34 = ( BOUNDED_SURFACE() B_SPLINE_SURFACE(6,8,(
    (#35,#36,#37,#38,#39,#40,#41,#42,#43)
    ,(#44,#45,#46,#47,#48,#49,#50,#51,#52)
    ,(#53,#54,#55,#56,#57,#58,#59,#60,#61)
    ,(#62,#63,#64,#65,#66,#67,#68,#69,#70)
    ,(#71,#72,#73,#74,#75,#76,#77,#78,#79)
    ,(#80,#81,#82,#83,#84,#85,#86,#87,#88)
    ,(#89,#90,#91,#92,#93,#94,#95,#96,#97
)),.UNSPECIFIED.,.T.,.F.,.F.) B_SPLINE_SURFACE_WITH_KNOTS((1,6,6,1),(9,9
    ),(-6.28318530718,0.,6.28318530718,12.566370614359),(0.,
1.000009864459E+03),.UNSPECIFIED.) GEOMETRIC_REPRESENTATION_ITEM() 
RATIONAL_B_SPLINE_SURFACE((
    (1.669078461068,1.669078461068,1.669078461068,1.669078461068
      ,1.669078461068,1.669078461068,1.669078461068,1.669078461068
      ,1.669078461068)
    ,(1.03672962321,1.03672962321,1.03672962321,1.03672962321
      ,1.03672962321,1.03672962321,1.03672962321,1.03672962321
      ,1.03672962321)
    ,(1.038346699848,1.038346699848,1.038346699848,1.038346699848
      ,1.038346699848,1.038346699848,1.038346699848,1.038346699848
      ,1.038346699848)
    ,(0.853534330196,0.853534330196,0.853534330196,0.853534330196
      ,0.853534330196,0.853534330196,0.853534330196,0.853534330196
      ,0.853534330196)
    ,(1.038346699848,1.038346699848,1.038346699847,1.038346699848
      ,1.038346699847,1.038346699848,1.038346699848,1.038346699848
      ,1.038346699848)
    ,(1.03672962321,1.03672962321,1.03672962321,1.03672962321
      ,1.03672962321,1.03672962321,1.03672962321,1.03672962321
      ,1.03672962321)
    ,(1.669078461068,1.669078461068,1.669078461068,1.669078461068
      ,1.669078461068,1.669078461068,1.669078461068,1.669078461068
,1.669078461068))) REPRESENTATION_ITEM('') SURFACE() );
#35 = CARTESIAN_POINT('',(6.,-7.348722325107E-16,5.684341886081E-14));
#36 = CARTESIAN_POINT('',(6.785399348829,-7.337880303382E-16,
    124.99877305319));
#37 = CARTESIAN_POINT('',(7.570618433183,-7.379079985936E-16,
    250.00413614313));
#38 = CARTESIAN_POINT('',(8.172034691269,-7.255480938273E-16,
    375.0173511542));
#39 = CARTESIAN_POINT('',(8.402960401258,-7.504847437945E-16,
    500.03769930866));
#40 = CARTESIAN_POINT('',(8.171812058066,-7.186091999234E-16,
    625.05804652212));
#41 = CARTESIAN_POINT('',(7.570227645813,-7.465816159735E-16,
    750.07126048362));
#42 = CARTESIAN_POINT('',(6.784925710883,-7.294512216482E-16,
    875.07662305296));
#43 = CARTESIAN_POINT('',(5.999526266904,-7.348722325107E-16,
    1.000075396106E+03));
#44 = CARTESIAN_POINT('',(6.,9.969258453426,5.684341886081E-14));
#45 = CARTESIAN_POINT('',(6.785399348829,9.969258453426,124.99877305319)
  );
#46 = CARTESIAN_POINT('',(7.570618433183,9.969258455956,250.00413614313)
  );
#47 = CARTESIAN_POINT('',(8.172034691269,9.969258443943,375.01735115421)
  );
#48 = CARTESIAN_POINT('',(8.402960401258,9.969258469028,500.03769930866)
  );
#49 = CARTESIAN_POINT('',(8.171812058065,9.969258440155,625.05804652211)
  );
#50 = CARTESIAN_POINT('',(7.570227645813,9.969258458483,750.07126048362)
  );
#51 = CARTESIAN_POINT('',(6.784925710883,9.969258453425,875.07662305295)
  );
#52 = CARTESIAN_POINT('',(5.999526266904,9.969258453426,
    1.000075396106E+03));
#53 = CARTESIAN_POINT('',(-6.327289143289,11.400674299474,
    -1.136868377216E-13));
#54 = CARTESIAN_POINT('',(-5.54188979446,11.400674299474,124.99875749587
    ));
#55 = CARTESIAN_POINT('',(-4.756670713212,11.400674302367,
    249.99057473708));
#56 = CARTESIAN_POINT('',(-4.155253323521,11.400674288629,
    374.97629586988));
#57 = CARTESIAN_POINT('',(-3.924252738667,11.400674317315,
    499.96024426239));
#58 = CARTESIAN_POINT('',(-4.155018546078,11.400674284298,
    624.94419364677));
#59 = CARTESIAN_POINT('',(-4.756258609097,11.400674305256,
    749.92991588665));
#60 = CARTESIAN_POINT('',(-5.541390320421,11.400674299472,
    874.92173367681));
#61 = CARTESIAN_POINT('',(-6.326789568909,11.400674299474,
    999.92049117331));
#62 = CARTESIAN_POINT('',(-16.49470152605,2.07505453792E-14,0.));
#63 = CARTESIAN_POINT('',(-15.70930217722,2.07631221244E-14,
    124.99874466436));
#64 = CARTESIAN_POINT('',(-14.92408309853,2.070609309013E-14,
    249.97938943866));
#65 = CARTESIAN_POINT('',(-14.3226647755,2.083467946778E-14,
    374.94243392331));
#66 = CARTESIAN_POINT('',(-14.09160243469,2.065166614107E-14,
    499.89636019289));
#67 = CARTESIAN_POINT('',(-14.3220527308,2.082665637171E-14,
    624.85028904849));
#68 = CARTESIAN_POINT('',(-14.92300877836,2.071368250534E-14,
    749.81333641905));
#69 = CARTESIAN_POINT('',(-15.70800009113,2.076008635832E-14,
    874.79398262443));
#70 = CARTESIAN_POINT('',(-16.49339917838,2.07505453792E-14,
    999.79272729044));
#71 = CARTESIAN_POINT('',(-6.327289143289,-11.40067429947,
    2.273736754432E-13));
#72 = CARTESIAN_POINT('',(-5.54188979446,-11.40067429947,124.99875749587
    ));
#73 = CARTESIAN_POINT('',(-4.756670713212,-11.40067430236,
    249.99057473708));
#74 = CARTESIAN_POINT('',(-4.15525332352,-11.40067428863,374.97629586987
    ));
#75 = CARTESIAN_POINT('',(-3.924252738667,-11.40067431731,
    499.96024426241));
#76 = CARTESIAN_POINT('',(-4.155018546078,-11.40067428429,
    624.94419364675));
#77 = CARTESIAN_POINT('',(-4.756258609097,-11.40067430525,
    749.92991588666));
#78 = CARTESIAN_POINT('',(-5.541390320421,-11.40067429947,
    874.92173367681));
#79 = CARTESIAN_POINT('',(-6.326789568909,-11.40067429947,
    999.92049117331));
#80 = CARTESIAN_POINT('',(6.,-9.969258453426,-5.684341886081E-14));
#81 = CARTESIAN_POINT('',(6.785399348829,-9.969258453426,124.99877305319
    ));
#82 = CARTESIAN_POINT('',(7.570618433183,-9.969258455956,250.00413614313
    ));
#83 = CARTESIAN_POINT('',(8.172034691269,-9.969258443944,375.01735115421
    ));
#84 = CARTESIAN_POINT('',(8.402960401258,-9.969258469028,500.03769930867
    ));
#85 = CARTESIAN_POINT('',(8.171812058065,-9.969258440156,625.05804652211
    ));
#86 = CARTESIAN_POINT('',(7.570227645813,-9.969258458483,750.07126048362
    ));
#87 = CARTESIAN_POINT('',(6.784925710883,-9.969258453425,875.07662305295
    ));
#88 = CARTESIAN_POINT('',(5.999526266904,-9.969258453426,
    1.000075396106E+03));
#89 = CARTESIAN_POINT('',(6.,-7.348722325107E-16,5.684341886081E-14));
#90 = CARTESIAN_POINT('',(6.785399348829,-7.337880303382E-16,
    124.99877305319));
#91 = CARTESIAN_POINT('',(7.570618433183,-7.379079985936E-16,
    250.00413614313));
#92 = CARTESIAN_POINT('',(8.172034691269,-7.255480938273E-16,
    375.0173511542));
#93 = CARTESIAN_POINT('',(8.402960401258,-7.504847437945E-16,
    500.03769930866));
#94 = CARTESIAN_POINT('',(8.171812058066,-7.186091999234E-16,
    625.05804652212));
#95 = CARTESIAN_POINT('',(7.570227645813,-7.465816159735E-16,
    750.07126048362));
#96 = CARTESIAN_POINT('',(6.784925710883,-7.294512216482E-16,
    875.07662305296));
#97 = CARTESIAN_POINT('',(5.999526266904,-7.348722325107E-16,
    1.000075396106E+03));
#98 = DEFINITIONAL_REPRESENTATION('',(#99),#103);
#99 = LINE('',#100,#101);
#100 = CARTESIAN_POINT('',(0.,0.));
#101 = VECTOR('',#102,1.);
#102 = DIRECTION('',(1.,0.));
#103 = ( GEOMETRIC_REPRESENTATION_CONTEXT(2) 
PARAMETRIC_REPRESENTATION_CONTEXT() REPRESENTATION_CONTEXT('2D SPACE',''
  ) );
#104 = PCURVE('',#105,#110);
#105 = PLANE('',#106);
#106 = AXIS2_PLACEMENT_3D('',#107,#108,#109);
#107 = CARTESIAN_POINT('',(9.505394092046E-04,-1.703521110532E-14,
    3.679945296988E-14));
#108 = DIRECTION('',(-1.703921997401E-15,3.484545564572E-15,1.));
#109 = DIRECTION('',(0.,1.,-3.484545564572E-15));
#110 = DEFINITIONAL_REPRESENTATION('',(#111),#119);
#111 = ( BOUNDED_CURVE() B_SPLINE_CURVE(6,(#112,#113,#114,#115,#116,#117
,#118),.UNSPECIFIED.,.T.,.F.) B_SPLINE_CURVE_WITH_KNOTS((1,6,6,1),(
    -6.28318530718,0.,6.28318530718,12.566370614359),.UNSPECIFIED.) 
CURVE() GEOMETRIC_REPRESENTATION_ITEM() RATIONAL_B_SPLINE_CURVE((
    1.669078461068,1.03672962321,1.038346699848,0.853534330196,
1.038346699848,1.03672962321,1.669078461068)) REPRESENTATION_ITEM('') );
#112 = CARTESIAN_POINT('',(1.630033887281E-14,-5.999049460591));
#113 = CARTESIAN_POINT('',(9.969258453426,-5.999049460591));
#114 = CARTESIAN_POINT('',(11.400674299474,6.328239682698));
#115 = CARTESIAN_POINT('',(3.778575648452E-14,16.49565206546));
#116 = CARTESIAN_POINT('',(-11.40067429947,6.328239682698));
#117 = CARTESIAN_POINT('',(-9.969258453426,-5.999049460591));
#118 = CARTESIAN_POINT('',(1.630033887281E-14,-5.999049460591));
#119 = ( GEOMETRIC_REPRESENTATION_CONTEXT(2) 
PARAMETRIC_REPRESENTATION_CONTEXT() REPRESENTATION_CONTEXT('2D SPACE',''
  ) );
#120 = ORIENTED_EDGE('',*,*,#121,.T.);
#121 = EDGE_CURVE('',#22,#122,#124,.T.);
#122 = VERTEX_POINT('',#123);
#123 = CARTESIAN_POINT('',(6.000000000002,-7.348689662817E-16,1.E+03));
#124 = SEAM_CURVE('',#125,(#135,#142),.PCURVE_S1.);
#125 = ( BOUNDED_CURVE() B_SPLINE_CURVE(8,(#126,#127,#128,#129,#130,#131
,#132,#133,#134),.UNSPECIFIED.,.F.,.F.) B_SPLINE_CURVE_WITH_KNOTS((9,9),
(0.,1.000009864459E+03),.PIECEWISE_BEZIER_KNOTS.) CURVE() 
GEOMETRIC_REPRESENTATION_ITEM() RATIONAL_B_SPLINE_CURVE((1.669078461068,
    1.669078461068,1.669078461068,1.669078461068,1.669078461068,
    1.669078461068,1.669078461068,1.669078461068,1.669078461068)) 
REPRESENTATION_ITEM('') );
#126 = CARTESIAN_POINT('',(6.,-7.348722325107E-16,5.684341886081E-14));
#127 = CARTESIAN_POINT('',(6.785399348829,-7.337880303382E-16,
    124.99877305319));
#128 = CARTESIAN_POINT('',(7.570618433183,-7.379079985936E-16,
    250.00413614313));
#129 = CARTESIAN_POINT('',(8.172034691269,-7.255480938273E-16,
    375.0173511542));
#130 = CARTESIAN_POINT('',(8.402960401258,-7.504847437945E-16,
    500.03769930866));
#131 = CARTESIAN_POINT('',(8.171812058066,-7.186091999234E-16,
    625.05804652212));
#132 = CARTESIAN_POINT('',(7.570227645813,-7.465816159735E-16,
    750.07126048362));
#133 = CARTESIAN_POINT('',(6.784925710883,-7.294512216482E-16,
    875.07662305296));
#134 = CARTESIAN_POINT('',(5.999526266904,-7.348722325107E-16,
    1.000075396106E+03));
#135 = PCURVE('',#34,#136);
#136 = DEFINITIONAL_REPRESENTATION('',(#137),#141);
#137 = LINE('',#138,#139);
#138 = CARTESIAN_POINT('',(0.,0.));
#139 = VECTOR('',#140,1.);
#140 = DIRECTION('',(0.,1.));
#141 = ( GEOMETRIC_REPRESENTATION_CONTEXT(2) 
PARAMETRIC_REPRESENTATION_CONTEXT() REPRESENTATION_CONTEXT('2D SPACE',''
  ) );
#142 = PCURVE('',#34,#143);
#143 = DEFINITIONAL_REPRESENTATION('',(#144),#147);
#144 = B_SPLINE_CURVE_WITH_KNOTS('',1,(#145,#146),.UNSPECIFIED.,.F.,.F.,
  (2,2),(0.,1.000009864459E+03),.PIECEWISE_BEZIER_KNOTS.);
#145 = CARTESIAN_POINT('',(6.28318530718,0.));
#146 = CARTESIAN_POINT('',(6.28318530718,1.000009864459E+03));
#147 = ( GEOMETRIC_REPRESENTATION_CONTEXT(2) 
PARAMETRIC_REPRESENTATION_CONTEXT() REPRESENTATION_CONTEXT('2D SPACE',''
  ) );
#148 = ORIENTED_EDGE('',*,*,#149,.T.);
#149 = EDGE_CURVE('',#122,#150,#152,.T.);
#150 = VERTEX_POINT('',#151);
#151 = CARTESIAN_POINT('',(1.03674685342E-10,-6.,1.E+03));
#152 = SURFACE_CURVE('',#153,(#183,#216),.PCURVE_S1.);
#153 = B_SPLINE_CURVE_WITH_KNOTS('',4,(#154,#155,#156,#157,#158,#159,
    #160,#161,#162,#163,#164,#165,#166,#167,#168,#169,#170,#171,#172,
    #173,#174,#175,#176,#177,#178,#179,#180,#181,#182),.UNSPECIFIED.,.F.
  ,.F.,(5,3,3,3,3,3,3,3,3,5),(0.,0.130103604435,0.229625250562,
    0.329477540116,0.429552485097,0.529762545287,0.663337674114,
    0.796521790592,0.898381734612,1.),.UNSPECIFIED.);
#154 = CARTESIAN_POINT('',(6.000000000002,-7.105427357601E-15,1.E+03));
#155 = CARTESIAN_POINT('',(6.000000000002,-0.30644238551,1.E+03));
#156 = CARTESIAN_POINT('',(5.979131673138,-0.612912614772,1.E+03));
#157 = CARTESIAN_POINT('',(5.937387619298,-0.917264292032,1.E+03));
#158 = CARTESIAN_POINT('',(5.827626546406,-1.446976052313,1.E+03));
#159 = CARTESIAN_POINT('',(5.76809132968,-1.674089464887,1.E+03));
#160 = CARTESIAN_POINT('',(5.696784766423,-1.897794930319,1.E+03));
#161 = CARTESIAN_POINT('',(5.531027837167,-2.337323101759,1.E+03));
#162 = CARTESIAN_POINT('',(5.436500944333,-2.553118258803,1.E+03));
#163 = CARTESIAN_POINT('',(5.330803499873,-2.763673217719,1.E+03));
#164 = CARTESIAN_POINT('',(5.097764437613,-3.173074296581,1.E+03));
#165 = CARTESIAN_POINT('',(4.970374484496,-3.371894300279,1.E+03));
#166 = CARTESIAN_POINT('',(4.832725467911,-3.563758049805,1.E+03));
#167 = CARTESIAN_POINT('',(4.537927444512,-3.932298519905,1.E+03));
#168 = CARTESIAN_POINT('',(4.380751603317,-4.108955323889,1.E+03));
#169 = CARTESIAN_POINT('',(4.214509480184,-4.277109844506,1.E+03));
#170 = CARTESIAN_POINT('',(3.807211100549,-4.648033300076,1.E+03));
#171 = CARTESIAN_POINT('',(3.559671678426,-4.843688457233,1.E+03));
#172 = CARTESIAN_POINT('',(3.299023398413,-5.021505128975,1.E+03));
#173 = CARTESIAN_POINT('',(2.756313494366,-5.33865394142,1.E+03));
#174 = CARTESIAN_POINT('',(2.474312455972,-5.478099720062,1.E+03));
#175 = CARTESIAN_POINT('',(2.183254844995,-5.597489140054,1.E+03));
#176 = CARTESIAN_POINT('',(1.657466101604,-5.771517436092,1.E+03));
#177 = CARTESIAN_POINT('',(1.425585579837,-5.834781787327,1.E+03));
#178 = CARTESIAN_POINT('',(1.190658355018,-5.885570332727,1.E+03));
#179 = CARTESIAN_POINT('',(0.717300514185,-5.961779298212,1.E+03));
#180 = CARTESIAN_POINT('',(0.478878261623,-5.987259823247,1.E+03));
#181 = CARTESIAN_POINT('',(0.239438269546,-6.,1.E+03));
#182 = CARTESIAN_POINT('',(4.863665026278E-12,-6.,1.E+03));
#183 = PCURVE('',#34,#184);
#184 = DEFINITIONAL_REPRESENTATION('',(#185),#215);
#185 = B_SPLINE_CURVE_WITH_KNOTS('',4,(#186,#187,#188,#189,#190,#191,
    #192,#193,#194,#195,#196,#197,#198,#199,#200,#201,#202,#203,#204,
    #205,#206,#207,#208,#209,#210,#211,#212,#213,#214),.UNSPECIFIED.,.F.
  ,.F.,(5,3,3,3,3,3,3,3,3,5),(0.,0.130103604435,0.229625250562,
    0.329477540116,0.429552485097,0.529762545287,0.663337674114,
    0.796521790592,0.898381734612,1.),.UNSPECIFIED.);
#186 = CARTESIAN_POINT('',(6.28318530718,999.93446687075));
#187 = CARTESIAN_POINT('',(6.231361914425,999.93446687075));
#188 = CARTESIAN_POINT('',(6.179689743435,999.93472910765));
#189 = CARTESIAN_POINT('',(6.128142375644,999.93525367443));
#190 = CARTESIAN_POINT('',(6.037347075221,999.93663296101));
#191 = CARTESIAN_POINT('',(5.998056065829,999.93738109625));
#192 = CARTESIAN_POINT('',(5.958816009504,999.93827715332));
#193 = CARTESIAN_POINT('',(5.880291796493,999.94036009862));
#194 = CARTESIAN_POINT('',(5.841007857442,999.94154794849));
#195 = CARTESIAN_POINT('',(5.801759229237,999.94287617047));
#196 = CARTESIAN_POINT('',(5.723232298343,999.94580460083));
#197 = CARTESIAN_POINT('',(5.683954054765,999.94740541661));
#198 = CARTESIAN_POINT('',(5.644698296164,999.94913515051));
#199 = CARTESIAN_POINT('',(5.566168704771,999.95283966034));
#200 = CARTESIAN_POINT('',(5.52689484854,999.95481477349));
#201 = CARTESIAN_POINT('',(5.487633366512,999.95690381594));
#202 = CARTESIAN_POINT('',(5.396058334512,999.96202203507));
#203 = CARTESIAN_POINT('',(5.343751262851,999.96513268092));
#204 = CARTESIAN_POINT('',(5.291450462391,999.96840805618));
#205 = CARTESIAN_POINT('',(5.187003843959,999.97522789252));
#206 = CARTESIAN_POINT('',(5.134857723644,999.97877159226));
#207 = CARTESIAN_POINT('',(5.082706957739,999.98242909933));
#208 = CARTESIAN_POINT('',(4.990658292755,999.98903630008));
#209 = CARTESIAN_POINT('',(4.950763256694,999.99195017222));
#210 = CARTESIAN_POINT('',(4.910862699988,999.99490233005));
#211 = CARTESIAN_POINT('',(4.831144284257,1.00000085067E+03));
#212 = CARTESIAN_POINT('',(4.791326377184,1.000003846748E+03));
#213 = CARTESIAN_POINT('',(4.751501957582,1.000006855614E+03));
#214 = CARTESIAN_POINT('',(4.711671071432,1.000009864459E+03));
#215 = ( GEOMETRIC_REPRESENTATION_CONTEXT(2) 
PARAMETRIC_REPRESENTATION_CONTEXT() REPRESENTATION_CONTEXT('2D SPACE',''
  ) );
#216 = PCURVE('',#217,#222);
#217 = PLANE('',#218);
#218 = AXIS2_PLACEMENT_3D('',#219,#220,#221);
#219 = CARTESIAN_POINT('',(-24.,-24.,1.E+03));
#220 = DIRECTION('',(0.,0.,1.));
#221 = DIRECTION('',(1.,0.,0.));
#222 = DEFINITIONAL_REPRESENTATION('',(#223),#253);
#223 = B_SPLINE_CURVE_WITH_KNOTS('',4,(#224,#225,#226,#227,#228,#229,
    #230,#231,#232,#233,#234,#235,#236,#237,#238,#239,#240,#241,#242,
    #243,#244,#245,#246,#247,#248,#249,#250,#251,#252),.UNSPECIFIED.,.F.
  ,.F.,(5,3,3,3,3,3,3,3,3,5),(0.,0.130103604435,0.229625250562,
    0.329477540116,0.429552485097,0.529762545287,0.663337674114,
    0.796521790592,0.898381734612,1.),.UNSPECIFIED.);
#224 = CARTESIAN_POINT('',(30.000000000002,24.));
#225 = CARTESIAN_POINT('',(30.000000000002,23.69355761449));
#226 = CARTESIAN_POINT('',(29.979131673138,23.387087385228));
#227 = CARTESIAN_POINT('',(29.937387619298,23.082735707968));
#228 = CARTESIAN_POINT('',(29.827626546406,22.553023947687));
#229 = CARTESIAN_POINT('',(29.76809132968,22.325910535113));
#230 = CARTESIAN_POINT('',(29.696784766423,22.102205069681));
#231 = CARTESIAN_POINT('',(29.531027837167,21.662676898241));
#232 = CARTESIAN_POINT('',(29.436500944333,21.446881741197));
#233 = CARTESIAN_POINT('',(29.330803499873,21.236326782281));
#234 = CARTESIAN_POINT('',(29.097764437613,20.826925703419));
#235 = CARTESIAN_POINT('',(28.970374484496,20.628105699721));
#236 = CARTESIAN_POINT('',(28.832725467911,20.436241950195));
#237 = CARTESIAN_POINT('',(28.537927444512,20.067701480095));
#238 = CARTESIAN_POINT('',(28.380751603317,19.891044676111));
#239 = CARTESIAN_POINT('',(28.214509480184,19.722890155494));
#240 = CARTESIAN_POINT('',(27.807211100549,19.351966699924));
#241 = CARTESIAN_POINT('',(27.559671678426,19.156311542767));
#242 = CARTESIAN_POINT('',(27.299023398413,18.978494871025));
#243 = CARTESIAN_POINT('',(26.756313494366,18.66134605858));
#244 = CARTESIAN_POINT('',(26.474312455972,18.521900279938));
#245 = CARTESIAN_POINT('',(26.183254844995,18.402510859946));
#246 = CARTESIAN_POINT('',(25.657466101604,18.228482563908));
#247 = CARTESIAN_POINT('',(25.425585579837,18.165218212673));
#248 = CARTESIAN_POINT('',(25.190658355018,18.114429667273));
#249 = CARTESIAN_POINT('',(24.717300514185,18.038220701788));
#250 = CARTESIAN_POINT('',(24.478878261623,18.012740176753));
#251 = CARTESIAN_POINT('',(24.239438269546,18.));
#252 = CARTESIAN_POINT('',(24.000000000005,18.));
#253 = ( GEOMETRIC_REPRESENTATION_CONTEXT(2) 
PARAMETRIC_REPRESENTATION_CONTEXT() REPRESENTATION_CONTEXT('2D SPACE',''
  ) );
#254 = ORIENTED_EDGE('',*,*,#255,.F.);
#255 = EDGE_CURVE('',#256,#150,#258,.T.);
#256 = VERTEX_POINT('',#257);
#257 = CARTESIAN_POINT('',(1.881831061491E-11,6.,1.E+03));
#258 = SURFACE_CURVE('',#259,(#267,#274),.PCURVE_S1.);
#259 = ( BOUNDED_CURVE() B_SPLINE_CURVE(6,(#260,#261,#262,#263,#264,#265
,#266),.UNSPECIFIED.,.T.,.F.) B_SPLINE_CURVE_WITH_KNOTS((1,6,6,1),(
    -6.28318530718,0.,6.28318530718,12.566370614359),.UNSPECIFIED.) 
CURVE() GEOMETRIC_REPRESENTATION_ITEM() RATIONAL_B_SPLINE_CURVE((
    1.669078461068,1.03672962321,1.038346699848,0.853534330196,
1.038346699848,1.03672962321,1.669078461068)) REPRESENTATION_ITEM('') );
#260 = CARTESIAN_POINT('',(5.999526266904,-7.348722325107E-16,
    1.000075396106E+03));
#261 = CARTESIAN_POINT('',(5.999526266904,9.969258453426,
    1.000075396106E+03));
#262 = CARTESIAN_POINT('',(-6.326789568909,11.400674299474,
    999.92049117331));
#263 = CARTESIAN_POINT('',(-16.49339917838,2.07505453792E-14,
    999.79272729044));
#264 = CARTESIAN_POINT('',(-6.326789568909,-11.40067429947,
    999.92049117331));
#265 = CARTESIAN_POINT('',(5.999526266904,-9.969258453426,
    1.000075396106E+03));
#266 = CARTESIAN_POINT('',(5.999526266904,-7.348722325107E-16,
    1.000075396106E+03));
#267 = PCURVE('',#34,#268);
#268 = DEFINITIONAL_REPRESENTATION('',(#269),#273);
#269 = LINE('',#270,#271);
#270 = CARTESIAN_POINT('',(0.,1.000009864459E+03));
#271 = VECTOR('',#272,1.);
#272 = DIRECTION('',(1.,0.));
#273 = ( GEOMETRIC_REPRESENTATION_CONTEXT(2) 
PARAMETRIC_REPRESENTATION_CONTEXT() REPRESENTATION_CONTEXT('2D SPACE',''
  ) );
#274 = PCURVE('',#275,#280);
#275 = PLANE('',#276);
#276 = AXIS2_PLACEMENT_3D('',#277,#278,#279);
#277 = CARTESIAN_POINT('',(9.504643588699E-04,-1.506148060784E-14,
    1.000000011944E+03));
#278 = DIRECTION('',(-1.256601759237E-02,-1.14909669792E-13,
    0.999921044484));
#279 = DIRECTION('',(0.999921044484,0.,1.256601759237E-02));
#280 = DEFINITIONAL_REPRESENTATION('',(#281),#289);
#281 = ( BOUNDED_CURVE() B_SPLINE_CURVE(6,(#282,#283,#284,#285,#286,#287
,#288),.UNSPECIFIED.,.T.,.F.) B_SPLINE_CURVE_WITH_KNOTS((1,6,6,1),(
    -6.28318530718,0.,6.28318530718,12.566370614359),.UNSPECIFIED.) 
CURVE() GEOMETRIC_REPRESENTATION_ITEM() RATIONAL_B_SPLINE_CURVE((
    1.669078461068,1.03672962321,1.038346699848,0.853534330196,
1.038346699848,1.03672962321,1.669078461068)) REPRESENTATION_ITEM('') );
#282 = CARTESIAN_POINT('',(5.999049460591,1.432660837532E-14));
#283 = CARTESIAN_POINT('',(5.999049460591,9.969258453426));
#284 = CARTESIAN_POINT('',(-6.328239682698,11.400674299474));
#285 = CARTESIAN_POINT('',(-16.49565206546,3.581202598728E-14));
#286 = CARTESIAN_POINT('',(-6.328239682698,-11.40067429947));
#287 = CARTESIAN_POINT('',(5.999049460591,-9.969258453426));
#288 = CARTESIAN_POINT('',(5.999049460591,1.432660837532E-14));
#289 = ( GEOMETRIC_REPRESENTATION_CONTEXT(2) 
PARAMETRIC_REPRESENTATION_CONTEXT() REPRESENTATION_CONTEXT('2D SPACE',''
  ) );
#290 = ORIENTED_EDGE('',*,*,#291,.T.);
#291 = EDGE_CURVE('',#256,#122,#292,.T.);
#292 = SURFACE_CURVE('',#293,(#341,#392),.PCURVE_S1.);
#293 = B_SPLINE_CURVE_WITH_KNOTS('',4,(#294,#295,#296,#297,#298,#299,
    #300,#301,#302,#303,#304,#305,#306,#307,#308,#309,#310,#311,#312,
    #313,#314,#315,#316,#317,#318,#319,#320,#321,#322,#323,#324,#325,
    #326,#327,#328,#329,#330,#331,#332,#333,#334,#335,#336,#337,#338,
    #339,#340),.UNSPECIFIED.,.F.,.F.,(5,3,3,3,3,3,3,3,3,3,3,3,3,3,3,5),(
    0.,9.179139966583E-02,0.183620440829,0.275478438886,0.366947712504,
    0.458804659521,0.55061086871,0.642316473366,0.733458626005,
    0.740644959131,0.747829764788,0.761795688474,0.786918381649,
    0.829933192882,0.898675054109,1.),.UNSPECIFIED.);
#294 = CARTESIAN_POINT('',(1.370636937281E-11,6.,1.E+03));
#295 = CARTESIAN_POINT('',(0.216283805128,6.,1.E+03));
#296 = CARTESIAN_POINT('',(0.432568878609,5.989604723539,1.E+03));
#297 = CARTESIAN_POINT('',(0.648104214255,5.968814026772,1.E+03));
#298 = CARTESIAN_POINT('',(1.076276498431,5.906644329249,1.E+03));
#299 = CARTESIAN_POINT('',(1.288912986521,5.865256780474,1.E+03));
#300 = CARTESIAN_POINT('',(1.499311685355,5.813680780658,1.E+03));
#301 = CARTESIAN_POINT('',(1.914256601735,5.690559809404,1.E+03));
#302 = CARTESIAN_POINT('',(2.118801696081,5.619008328669,1.E+03));
#303 = CARTESIAN_POINT('',(2.319664902573,5.537689531524,1.E+03));
#304 = CARTESIAN_POINT('',(2.711828589841,5.356532518481,1.E+03));
#305 = CARTESIAN_POINT('',(2.903166636702,5.25677381191,1.E+03));
#306 = CARTESIAN_POINT('',(3.089501642494,5.14795449141,1.E+03));
#307 = CARTESIAN_POINT('',(3.451684330881,4.912507073361,1.E+03));
#308 = CARTESIAN_POINT('',(3.627484867743,4.785805033559,1.E+03));
#309 = CARTESIAN_POINT('',(3.796980157864,4.650784054572,1.E+03));
#310 = CARTESIAN_POINT('',(4.1221384295,4.365177392416,1.E+03));
#311 = CARTESIAN_POINT('',(4.277809586679,4.214599837329,1.E+03));
#312 = CARTESIAN_POINT('',(4.426052686257,4.056705006389,1.E+03));
#313 = CARTESIAN_POINT('',(4.706553422766,3.727606505471,1.E+03));
#314 = CARTESIAN_POINT('',(4.838828905486,3.556417021191,1.E+03));
#315 = CARTESIAN_POINT('',(4.962720283926,3.379067934381,1.E+03));
#316 = CARTESIAN_POINT('',(5.192229568875,3.014444030871,1.E+03));
#317 = CARTESIAN_POINT('',(5.297955481261,2.827236252786,1.E+03));
#318 = CARTESIAN_POINT('',(5.394614677318,2.635194198183,1.E+03));
#319 = CARTESIAN_POINT('',(5.488791648218,2.423520774077,1.E+03));
#320 = CARTESIAN_POINT('',(5.495616346627,2.408024758877,1.E+03));
#321 = CARTESIAN_POINT('',(5.502382677669,2.392503200717,1.E+03));
#322 = CARTESIAN_POINT('',(5.515796894871,2.36141296465,1.E+03));
#323 = CARTESIAN_POINT('',(5.522444805902,2.345844297458,1.E+03));
#324 = CARTESIAN_POINT('',(5.52903409014,2.330250759486,1.E+03));
#325 = CARTESIAN_POINT('',(5.548258721737,2.284274051786,1.E+03));
#326 = CARTESIAN_POINT('',(5.560730795353,2.253822703803,1.E+03));
#327 = CARTESIAN_POINT('',(5.572979813941,2.223281079092,1.E+03));
#328 = CARTESIAN_POINT('',(5.6066360678,2.137553671931,1.E+03));
#329 = CARTESIAN_POINT('',(5.627542426714,2.082171545011,1.E+03));
#330 = CARTESIAN_POINT('',(5.647718290889,2.026519591037,1.E+03));
#331 = CARTESIAN_POINT('',(5.70044417811,1.874888568133,1.E+03));
#332 = CARTESIAN_POINT('',(5.731573472291,1.778416384654,1.E+03));
#333 = CARTESIAN_POINT('',(5.760521263707,1.681268825777,1.E+03));
#334 = CARTESIAN_POINT('',(5.830010106873,1.427309043894,1.E+03));
#335 = CARTESIAN_POINT('',(5.867129865898,1.269563106366,1.E+03));
#336 = CARTESIAN_POINT('',(5.898543930958,1.110587232871,1.E+03));
#337 = CARTESIAN_POINT('',(5.962024536348,0.715010600224,1.E+03));
#338 = CARTESIAN_POINT('',(5.987342714208,0.47733227707,1.E+03));
#339 = CARTESIAN_POINT('',(6.000000000002,0.238658053992,1.E+03));
#340 = CARTESIAN_POINT('',(6.000000000002,-3.552713678801E-15,1.E+03));
#341 = PCURVE('',#34,#342);
#342 = DEFINITIONAL_REPRESENTATION('',(#343),#391);
#343 = B_SPLINE_CURVE_WITH_KNOTS('',4,(#344,#345,#346,#347,#348,#349,
    #350,#351,#352,#353,#354,#355,#356,#357,#358,#359,#360,#361,#362,
    #363,#364,#365,#366,#367,#368,#369,#370,#371,#372,#373,#374,#375,
    #376,#377,#378,#379,#380,#381,#382,#383,#384,#385,#386,#387,#388,
    #389,#390),.UNSPECIFIED.,.F.,.F.,(5,3,3,3,3,3,3,3,3,3,3,3,3,3,3,5),(
    0.,9.179139966583E-02,0.183620440829,0.275478438886,0.366947712504,
    0.458804659521,0.55061086871,0.642316473366,0.733458626005,
    0.740644959131,0.747829764788,0.761795688474,0.786918381649,
    0.829933192882,0.898675054109,1.),.UNSPECIFIED.);
#344 = CARTESIAN_POINT('',(1.571514235746,1.000009864459E+03));
#345 = CARTESIAN_POINT('',(1.535535126666,1.000007146579E+03));
#346 = CARTESIAN_POINT('',(1.499561302024,1.000004428684E+03));
#347 = CARTESIAN_POINT('',(1.463592788597,1.000001720209E+03));
#348 = CARTESIAN_POINT('',(1.391651012845,999.99633968282));
#349 = CARTESIAN_POINT('',(1.355677708808,999.99366763629));
#350 = CARTESIAN_POINT('',(1.319709051239,999.99102371043));
#351 = CARTESIAN_POINT('',(1.247768163762,999.98580940257));
#352 = CARTESIAN_POINT('',(1.211795890268,999.98323903469));
#353 = CARTESIAN_POINT('',(1.175826695306,999.98071493441));
#354 = CARTESIAN_POINT('',(1.104044011681,999.97578690162));
#355 = CARTESIAN_POINT('',(1.068230462826,999.97338249705));
#356 = CARTESIAN_POINT('',(1.03241729162,999.97104096203));
#357 = CARTESIAN_POINT('',(0.960635948312,999.96648967851));
#358 = CARTESIAN_POINT('',(0.924667716832,999.96428052245));
#359 = CARTESIAN_POINT('',(0.888695816173,999.96215059981));
#360 = CARTESIAN_POINT('',(0.816758954611,999.95806457499));
#361 = CARTESIAN_POINT('',(0.78079395501,999.95610837007));
#362 = CARTESIAN_POINT('',(0.74481965754,999.95424550811));
#363 = CARTESIAN_POINT('',(0.67288453101,999.95072066175));
#364 = CARTESIAN_POINT('',(0.636923684894,999.9490584531));
#365 = CARTESIAN_POINT('',(0.60094616398,999.94750160132));
#366 = CARTESIAN_POINT('',(0.529169636864,999.94461752706));
#367 = CARTESIAN_POINT('',(0.493370847661,999.94328894734));
#368 = CARTESIAN_POINT('',(0.457546368001,999.94207430238));
#369 = CARTESIAN_POINT('',(0.418863437762,999.94089084971));
#370 = CARTESIAN_POINT('',(0.41603610269,999.94080508875));
#371 = CARTESIAN_POINT('',(0.41320857006,999.94072006125));
#372 = CARTESIAN_POINT('',(0.4075537051,999.94055149466));
#373 = CARTESIAN_POINT('',(0.404726372856,999.94046795526));
#374 = CARTESIAN_POINT('',(0.401898837519,999.94038515257));
#375 = CARTESIAN_POINT('',(0.393574493987,999.94014357078));
#376 = CARTESIAN_POINT('',(0.388077113591,999.93998684341));
#377 = CARTESIAN_POINT('',(0.382578934112,999.93983291901));
#378 = CARTESIAN_POINT('',(0.367188021683,999.93940998565));
#379 = CARTESIAN_POINT('',(0.357293453856,999.93914727083));
#380 = CARTESIAN_POINT('',(0.347396105125,999.9388937356));
#381 = CARTESIAN_POINT('',(0.320544719943,999.93823116819));
#382 = CARTESIAN_POINT('',(0.303585056601,999.93783998927));
#383 = CARTESIAN_POINT('',(0.286616192174,999.93747622369));
#384 = CARTESIAN_POINT('',(0.242503656594,999.93660300856));
#385 = CARTESIAN_POINT('',(0.215344564728,999.93613655189));
#386 = CARTESIAN_POINT('',(0.188157204814,999.93574179446));
#387 = CARTESIAN_POINT('',(0.120817763588,999.93494408044));
#388 = CARTESIAN_POINT('',(8.062859844278E-02,999.93462592554));
#389 = CARTESIAN_POINT('',(4.03601807419E-02,999.93446687075));
#390 = CARTESIAN_POINT('',(0.,999.93446687075));
#391 = ( GEOMETRIC_REPRESENTATION_CONTEXT(2) 
PARAMETRIC_REPRESENTATION_CONTEXT() REPRESENTATION_CONTEXT('2D SPACE',''
  ) );
#392 = PCURVE('',#217,#393);
#393 = DEFINITIONAL_REPRESENTATION('',(#394),#442);
#394 = B_SPLINE_CURVE_WITH_KNOTS('',4,(#395,#396,#397,#398,#399,#400,
    #401,#402,#403,#404,#405,#406,#407,#408,#409,#410,#411,#412,#413,
    #414,#415,#416,#417,#418,#419,#420,#421,#422,#423,#424,#425,#426,
    #427,#428,#429,#430,#431,#432,#433,#434,#435,#436,#437,#438,#439,
    #440,#441),.UNSPECIFIED.,.F.,.F.,(5,3,3,3,3,3,3,3,3,3,3,3,3,3,3,5),(
    0.,9.179139966583E-02,0.183620440829,0.275478438886,0.366947712504,
    0.458804659521,0.55061086871,0.642316473366,0.733458626005,
    0.740644959131,0.747829764788,0.761795688474,0.786918381649,
    0.829933192882,0.898675054109,1.),.UNSPECIFIED.);
#395 = CARTESIAN_POINT('',(24.000000000014,30.));
#396 = CARTESIAN_POINT('',(24.216283805128,30.));
#397 = CARTESIAN_POINT('',(24.432568878609,29.989604723539));
#398 = CARTESIAN_POINT('',(24.648104214255,29.968814026772));
#399 = CARTESIAN_POINT('',(25.076276498431,29.906644329249));
#400 = CARTESIAN_POINT('',(25.288912986521,29.865256780474));
#401 = CARTESIAN_POINT('',(25.499311685355,29.813680780658));
#402 = CARTESIAN_POINT('',(25.914256601735,29.690559809404));
#403 = CARTESIAN_POINT('',(26.118801696081,29.619008328669));
#404 = CARTESIAN_POINT('',(26.319664902573,29.537689531524));
#405 = CARTESIAN_POINT('',(26.711828589841,29.356532518481));
#406 = CARTESIAN_POINT('',(26.903166636702,29.25677381191));
#407 = CARTESIAN_POINT('',(27.089501642494,29.14795449141));
#408 = CARTESIAN_POINT('',(27.451684330881,28.912507073361));
#409 = CARTESIAN_POINT('',(27.627484867743,28.785805033559));
#410 = CARTESIAN_POINT('',(27.796980157864,28.650784054572));
#411 = CARTESIAN_POINT('',(28.1221384295,28.365177392416));
#412 = CARTESIAN_POINT('',(28.277809586679,28.214599837329));
#413 = CARTESIAN_POINT('',(28.426052686257,28.056705006389));
#414 = CARTESIAN_POINT('',(28.706553422766,27.727606505471));
#415 = CARTESIAN_POINT('',(28.838828905486,27.556417021191));
#416 = CARTESIAN_POINT('',(28.962720283926,27.379067934381));
#417 = CARTESIAN_POINT('',(29.192229568875,27.014444030871));
#418 = CARTESIAN_POINT('',(29.297955481261,26.827236252786));
#419 = CARTESIAN_POINT('',(29.394614677318,26.635194198183));
#420 = CARTESIAN_POINT('',(29.488791648218,26.423520774077));
#421 = CARTESIAN_POINT('',(29.495616346627,26.408024758877));
#422 = CARTESIAN_POINT('',(29.502382677669,26.392503200717));
#423 = CARTESIAN_POINT('',(29.515796894871,26.36141296465));
#424 = CARTESIAN_POINT('',(29.522444805902,26.345844297458));
#425 = CARTESIAN_POINT('',(29.52903409014,26.330250759486));
#426 = CARTESIAN_POINT('',(29.548258721737,26.284274051786));
#427 = CARTESIAN_POINT('',(29.560730795353,26.253822703803));
#428 = CARTESIAN_POINT('',(29.572979813941,26.223281079092));
#429 = CARTESIAN_POINT('',(29.6066360678,26.137553671931));
#430 = CARTESIAN_POINT('',(29.627542426714,26.082171545011));
#431 = CARTESIAN_POINT('',(29.647718290889,26.026519591037));
#432 = CARTESIAN_POINT('',(29.70044417811,25.874888568133));
#433 = CARTESIAN_POINT('',(29.731573472291,25.778416384654));
#434 = CARTESIAN_POINT('',(29.760521263707,25.681268825777));
#435 = CARTESIAN_POINT('',(29.830010106873,25.427309043894));
#436 = CARTESIAN_POINT('',(29.867129865898,25.269563106366));
#437 = CARTESIAN_POINT('',(29.898543930958,25.110587232871));
#438 = CARTESIAN_POINT('',(29.962024536348,24.715010600224));
#439 = CARTESIAN_POINT('',(29.987342714208,24.47733227707));
#440 = CARTESIAN_POINT('',(30.000000000002,24.238658053992));
#441 = CARTESIAN_POINT('',(30.000000000002,24.));
#442 = ( GEOMETRIC_REPRESENTATION_CONTEXT(2) 
PARAMETRIC_REPRESENTATION_CONTEXT() REPRESENTATION_CONTEXT('2D SPACE',''
  ) );
#443 = ORIENTED_EDGE('',*,*,#121,.F.);
#444 = ADVANCED_FACE('',(#445),#105,.F.);
#445 = FACE_BOUND('',#446,.F.);
#446 = EDGE_LOOP('',(#447));
#447 = ORIENTED_EDGE('',*,*,#21,.T.);
#448 = ADVANCED_FACE('',(#449),#217,.T.);
#449 = FACE_BOUND('',#450,.T.);
#450 = EDGE_LOOP('',(#451,#452,#453));
#451 = ORIENTED_EDGE('',*,*,#149,.F.);
#452 = ORIENTED_EDGE('',*,*,#291,.F.);
#453 = ORIENTED_EDGE('',*,*,#454,.F.);
#454 = EDGE_CURVE('',#150,#256,#455,.T.);
#455 = SURFACE_CURVE('',#456,(#460,#466),.PCURVE_S1.);
#456 = LINE('',#457,#458);
#457 = CARTESIAN_POINT('',(1.736272810097E-10,-11.99999999989,1.E+03));
#458 = VECTOR('',#459,1.);
#459 = DIRECTION('',(-9.144477870362E-12,1.,0.));
#460 = PCURVE('',#217,#461);
#461 = DEFINITIONAL_REPRESENTATION('',(#462),#465);
#462 = B_SPLINE_CURVE_WITH_KNOTS('',1,(#463,#464),.UNSPECIFIED.,.F.,.F.,
  (2,2),(0.599325700417,23.400674299364),.PIECEWISE_BEZIER_KNOTS.);
#463 = CARTESIAN_POINT('',(24.000000000168,12.599325700526));
#464 = CARTESIAN_POINT('',(23.99999999996,35.400674299474));
#465 = ( GEOMETRIC_REPRESENTATION_CONTEXT(2) 
PARAMETRIC_REPRESENTATION_CONTEXT() REPRESENTATION_CONTEXT('2D SPACE',''
  ) );
#466 = PCURVE('',#275,#467);
#467 = DEFINITIONAL_REPRESENTATION('',(#468),#471);
#468 = B_SPLINE_CURVE_WITH_KNOTS('',1,(#469,#470),.UNSPECIFIED.,.F.,.F.,
  (2,2),(0.599325700417,23.400674299364),.PIECEWISE_BEZIER_KNOTS.);
#469 = CARTESIAN_POINT('',(-9.50539241058E-04,-11.40067429947));
#470 = CARTESIAN_POINT('',(-9.50539449548E-04,11.400674299474));
#471 = ( GEOMETRIC_REPRESENTATION_CONTEXT(2) 
PARAMETRIC_REPRESENTATION_CONTEXT() REPRESENTATION_CONTEXT('2D SPACE',''
  ) );
#472 = ADVANCED_FACE('',(#473),#275,.T.);
#473 = FACE_BOUND('',#474,.T.);
#474 = EDGE_LOOP('',(#475,#476));
#475 = ORIENTED_EDGE('',*,*,#454,.T.);
#476 = ORIENTED_EDGE('',*,*,#255,.T.);
#477 = ( GEOMETRIC_REPRESENTATION_CONTEXT(3) 
GLOBAL_UNCERTAINTY_ASSIGNED_CONTEXT((#481)) GLOBAL_UNIT_ASSIGNED_CONTEXT
((#478,#479,#480)) REPRESENTATION_CONTEXT('Context #1',
  '3D Context with UNIT and UNCERTAINTY') );
#478 = ( LENGTH_UNIT() NAMED_UNIT(*) SI_UNIT(.MILLI.,.METRE.) );
#479 = ( NAMED_UNIT(*) PLANE_ANGLE_UNIT() SI_UNIT($,.RADIAN.) );
#480 = ( NAMED_UNIT(*) SI_UNIT($,.STERADIAN.) SOLID_ANGLE_UNIT() );
#481 = UNCERTAINTY_MEASURE_WITH_UNIT(LENGTH_MEASURE(5.E-06),#478,
  'distance_accuracy_value','confusion accuracy');
#482 = PRODUCT_RELATED_PRODUCT_CATEGORY('part',$,(#7));
ENDSEC;
END-ISO-10303-21;
